<svg width="1221" height="67" viewBox="0 0 1221 67" fill="none" xmlns="http://www.w3.org/2000/svg">
<path d="M0.469019 53.0911C0.243215 53.2501 0.189025 53.562 0.347982 53.7878C0.506939 54.0136 0.818849 54.0678 1.04465 53.9089L0.469019 53.0911ZM1338.38 22.1877C1338.16 22.3472 1338.1 22.6593 1338.26 22.8847C1338.42 23.1101 1338.73 23.1635 1338.96 23.0039L1338.38 22.1877ZM1466.28 24.2921L1465.98 24.6924L1466.28 24.2921ZM1215.17 23.8261L1214.89 24.2399L1215.17 23.8261ZM1338.96 23.0039C1339.18 22.8444 1339.24 22.5324 1339.08 22.307C1338.92 22.0816 1338.61 22.0282 1338.38 22.1877L1338.96 23.0039ZM1081.87 21.1472C1081.64 21.305 1081.59 21.6166 1081.74 21.8432C1081.9 22.0698 1082.21 22.1256 1082.44 21.9678L1081.87 21.1472ZM1210.66 20.7661L1210.38 21.1798L1210.66 20.7661ZM953.878 22.5022L953.598 22.9166L953.878 22.5022ZM1082.44 21.9678C1082.67 21.81 1082.72 21.4983 1082.56 21.2717C1082.41 21.0451 1082.1 20.9894 1081.87 21.1472L1082.44 21.9678ZM822.595 20.8576C822.369 21.0154 822.313 21.327 822.471 21.5536C822.629 21.7802 822.94 21.836 823.167 21.6782L822.595 20.8576ZM950.654 20.327L950.934 19.9125L950.654 20.327ZM694.247 21.0144C694.019 20.8578 693.708 20.9151 693.551 21.1425C693.394 21.3698 693.452 21.6812 693.679 21.8379L694.247 21.0144ZM823.167 21.6782C823.393 21.5204 823.449 21.2087 823.291 20.9821C823.134 20.7555 822.822 20.6998 822.595 20.8576L823.167 21.6782ZM565.034 20.9487L565.316 21.3618L565.034 20.9487ZM693.679 21.8379C693.907 21.9946 694.218 21.9372 694.375 21.7099C694.531 21.4825 694.474 21.1711 694.247 21.0144L693.679 21.8379ZM435.267 21.0319C435.04 20.874 434.729 20.9298 434.571 21.1564C434.413 21.383 434.469 21.6946 434.695 21.8525L435.267 21.0319ZM563.379 22.077L563.661 22.4901L563.379 22.077ZM306.81 20.6528L307.091 21.0666L306.81 20.6528ZM434.695 21.8525C434.922 22.0103 435.234 21.9545 435.392 21.7279C435.549 21.5013 435.494 21.1897 435.267 21.0319L434.695 21.8525ZM175.581 21.501C175.353 21.3455 175.042 21.4043 174.886 21.6325C174.73 21.8606 174.789 22.1717 175.017 22.3272L175.581 21.501ZM304.719 22.0713L305 22.4851L304.719 22.0713ZM175.017 22.3272C175.246 22.4828 175.557 22.424 175.712 22.1958C175.868 21.9677 175.809 21.6566 175.581 21.501L175.017 22.3272ZM44.2348 22.8933L44.5226 23.3021L44.2348 22.8933ZM4.66781 51.3583C4.89362 51.1993 4.94781 50.8874 4.78885 50.6616C4.62989 50.4358 4.31798 50.3816 4.09218 50.5406L4.66781 51.3583ZM11.3385 45.4395C11.1127 45.5984 11.0585 45.9103 11.2175 46.1361C11.3764 46.3619 11.6883 46.4161 11.9141 46.2572L11.3385 45.4395ZM19.1604 41.1561C19.3863 40.9971 19.4404 40.6852 19.2815 40.4594C19.1225 40.2336 18.8106 40.1794 18.5848 40.3383L19.1604 41.1561ZM25.8311 35.2372C25.6053 35.3962 25.5511 35.7081 25.7101 35.9339C25.8691 36.1597 26.181 36.2139 26.4068 36.0549L25.8311 35.2372ZM33.6531 30.9538C33.8789 30.7949 33.9331 30.4829 33.7741 30.2571C33.6152 30.0313 33.3033 29.9771 33.0775 30.1361L33.6531 30.9538ZM40.3238 25.035C40.098 25.1939 40.0438 25.5059 40.2027 25.7317C40.3617 25.9575 40.6736 26.0117 40.8994 25.8527L40.3238 25.035ZM48.6386 20.535C48.8711 20.3859 48.9386 20.0766 48.7895 19.8442C48.6404 19.6118 48.3311 19.5442 48.0987 19.6933L48.6386 20.535ZM56.7429 14.6618C56.4984 14.7903 56.4044 15.0926 56.5329 15.337C56.6613 15.5815 56.9636 15.6755 57.2081 15.5471L56.7429 14.6618ZM66.1755 11.3201C66.4301 11.2133 66.55 10.9203 66.4432 10.6657C66.3364 10.411 66.0434 10.2911 65.7887 10.3979L66.1755 11.3201ZM75.1693 6.93443C74.9063 7.01875 74.7615 7.30027 74.8458 7.56322C74.9302 7.82618 75.2117 7.97099 75.4746 7.88667L75.1693 6.93443ZM85.0378 5.27134C85.3071 5.2101 85.4757 4.94217 85.4145 4.67291C85.3533 4.40364 85.0853 4.235 84.8161 4.29624L85.0378 5.27134ZM94.6546 2.50252C94.3811 2.54025 94.1899 2.7926 94.2276 3.06615C94.2654 3.3397 94.5177 3.53087 94.7913 3.49314L94.6546 2.50252ZM104.662 2.56398C104.937 2.55 105.15 2.3151 105.136 2.03931C105.122 1.76352 104.887 1.55128 104.611 1.56527L104.662 2.56398ZM114.611 1.49056C114.335 1.4807 114.103 1.69642 114.094 1.97238C114.084 2.24835 114.299 2.48006 114.575 2.48992L114.611 1.49056ZM124.458 3.2715C124.733 3.30514 124.982 3.11022 125.016 2.83614C125.049 2.56205 124.854 2.31259 124.58 2.27895L124.458 3.2715ZM134.445 3.92547C134.174 3.86827 133.909 4.04089 133.852 4.31104C133.795 4.58119 133.967 4.84657 134.237 4.90378L134.445 3.92547ZM143.839 7.37594C144.103 7.45632 144.382 7.30732 144.462 7.04313C144.543 6.77895 144.394 6.49962 144.13 6.41924L143.839 7.37594ZM153.561 9.74221C153.305 9.63923 153.013 9.76346 152.91 10.0197C152.807 10.2759 152.932 10.5671 153.188 10.6701L153.561 9.74221ZM162.217 14.7626C162.464 14.8874 162.765 14.7888 162.889 14.5425C163.014 14.2962 162.916 13.9953 162.669 13.8705L162.217 14.7626ZM171.388 18.7723C171.153 18.6266 170.845 18.6988 170.699 18.9335C170.554 19.1681 170.626 19.4763 170.861 19.6219L171.388 18.7723ZM179.15 25.0181C179.384 25.1639 179.692 25.0919 179.838 24.8573C179.984 24.6228 179.912 24.3145 179.677 24.1688L179.15 25.0181ZM188.191 28.9689C187.945 28.8436 187.643 28.9416 187.518 29.1877C187.393 29.4338 187.491 29.7349 187.737 29.8601L188.191 28.9689ZM196.705 33.9514C196.961 34.0552 197.253 33.9318 197.356 33.6759C197.46 33.42 197.337 33.1284 197.081 33.0247L196.705 33.9514ZM206.284 36.3059C206.02 36.2244 205.74 36.3722 205.659 36.636C205.577 36.8998 205.725 37.1798 205.989 37.2613L206.284 36.3059ZM215.523 39.7668C215.793 39.8256 216.059 39.6544 216.118 39.3846C216.177 39.1148 216.005 38.8484 215.736 38.7897L215.523 39.7668ZM225.364 40.4585C225.09 40.423 224.84 40.6162 224.804 40.8901C224.769 41.1639 224.962 41.4147 225.236 41.4502L225.364 40.4585ZM235.056 42.3006C235.332 42.3127 235.565 42.0988 235.577 41.8229C235.589 41.5471 235.376 41.3136 235.1 41.3015L235.056 42.3006ZM244.872 41.3134C244.596 41.3248 244.381 41.5577 244.393 41.8336C244.404 42.1096 244.637 42.324 244.913 42.3125L244.872 41.3134ZM254.735 41.4861C255.009 41.4512 255.203 41.2009 255.168 40.927C255.133 40.653 254.883 40.4592 254.609 40.4941L254.735 41.4861ZM264.242 38.8486C263.972 38.9067 263.8 39.1726 263.858 39.4426C263.916 39.7125 264.182 39.8843 264.452 39.8263L264.242 38.8486ZM273.992 37.3439C274.256 37.263 274.405 36.9834 274.324 36.7194C274.243 36.4553 273.963 36.3069 273.699 36.3878L273.992 37.3439ZM282.911 33.1289C282.654 33.232 282.53 33.5233 282.634 33.7795C282.737 34.0356 283.028 34.1597 283.284 34.0565L282.911 33.1289ZM292.262 29.987C292.508 29.8624 292.607 29.5616 292.482 29.3152C292.358 29.0688 292.057 28.9701 291.811 29.0947L292.262 29.987ZM300.336 24.3153C300.101 24.4604 300.028 24.7685 300.173 25.0034C300.318 25.2383 300.626 25.3111 300.861 25.1659L300.336 24.3153ZM305.523 22.1304C305.751 21.9754 305.811 21.6645 305.656 21.436C305.501 21.2074 305.19 21.1478 304.961 21.3029L305.523 22.1304ZM306.007 20.5936C305.778 20.7486 305.719 21.0596 305.874 21.2881C306.029 21.5166 306.34 21.5762 306.568 21.4212L306.007 20.5936ZM311.159 18.4326C311.394 18.2876 311.467 17.9795 311.322 17.7445C311.176 17.5096 310.868 17.4367 310.633 17.5818L311.159 18.4326ZM319.162 12.8079C318.916 12.9323 318.817 13.233 318.941 13.4795C319.066 13.726 319.366 13.8251 319.613 13.7007L319.162 12.8079ZM328.441 9.71401C328.697 9.61132 328.822 9.32026 328.719 9.06393C328.616 8.80759 328.325 8.68304 328.069 8.78574L328.441 9.71401ZM337.288 5.54602C337.024 5.62626 336.875 5.9055 336.955 6.16973C337.035 6.43396 337.315 6.58311 337.579 6.50288L337.288 5.54602ZM346.961 4.09003C347.231 4.03283 347.404 3.76745 347.346 3.4973C347.289 3.22715 347.024 3.05452 346.754 3.11172L346.961 4.09003ZM356.393 1.50026C356.119 1.53404 355.924 1.78361 355.958 2.05767C355.992 2.33174 356.241 2.52653 356.515 2.49275L356.393 1.50026ZM366.171 1.72151C366.447 1.71136 366.663 1.47943 366.653 1.20347C366.642 0.927517 366.41 0.712038 366.135 0.722189L366.171 1.72151ZM375.907 0.782373C375.631 0.768826 375.397 0.98143 375.383 1.25724C375.37 1.53305 375.582 1.76762 375.858 1.78117L375.907 0.782373ZM385.504 2.67127C385.777 2.70843 386.029 2.51673 386.067 2.2431C386.104 1.96947 385.912 1.71752 385.638 1.68036L385.504 2.67127ZM395.257 3.41043C394.988 3.3499 394.72 3.51925 394.66 3.78868C394.599 4.05811 394.768 4.32559 395.038 4.38611L395.257 3.41043ZM404.389 6.91433C404.653 6.99781 404.934 6.85211 405.017 6.58889C405.101 6.32567 404.955 6.04461 404.692 5.96112L404.389 6.91433ZM413.87 9.31414C413.615 9.2083 413.323 9.32925 413.217 9.5843C413.111 9.83935 413.232 10.1319 413.487 10.2378L413.87 9.31414ZM422.265 14.3329C422.51 14.4603 422.812 14.365 422.94 14.12C423.067 13.875 422.972 13.5731 422.727 13.4457L422.265 14.3329ZM431.196 18.3243C430.963 18.1763 430.654 18.2454 430.506 18.4785C430.358 18.7117 430.427 19.0206 430.661 19.1686L431.196 18.3243ZM438.774 24.5653C439.008 24.7133 439.317 24.6442 439.465 24.411C439.612 24.1779 439.543 23.8689 439.31 23.721L438.774 24.5653ZM447.723 28.565C447.478 28.4376 447.176 28.533 447.049 28.7781C446.921 29.0231 447.017 29.325 447.262 29.4523L447.723 28.565ZM456.138 33.5891C456.393 33.6948 456.685 33.5738 456.791 33.3187C456.897 33.0636 456.776 32.7711 456.521 32.6653L456.138 33.5891ZM465.638 35.9907C465.375 35.9074 465.094 36.0533 465.011 36.3165C464.927 36.5798 465.073 36.8608 465.337 36.9441L465.638 35.9907ZM474.792 39.4934C475.061 39.5537 475.329 39.3841 475.389 39.1146C475.449 38.8452 475.28 38.5778 475.01 38.5175L474.792 39.4934ZM484.565 40.2275C484.291 40.1906 484.04 40.3825 484.003 40.6562C483.966 40.9299 484.158 41.1816 484.432 41.2185L484.565 40.2275ZM494.183 42.1082C494.459 42.1214 494.694 41.9085 494.707 41.6327C494.72 41.3569 494.507 41.1225 494.231 41.1093L494.183 42.1082ZM503.938 41.1573C503.662 41.1678 503.447 41.4 503.457 41.676C503.468 41.9519 503.7 42.1671 503.976 42.1566L503.938 41.1573ZM513.736 41.3634C514.01 41.3292 514.204 41.0794 514.17 40.8054C514.136 40.5313 513.886 40.3369 513.612 40.3711L513.736 41.3634ZM523.183 38.7557C522.913 38.8133 522.741 39.079 522.799 39.349C522.856 39.6191 523.122 39.7913 523.392 39.7336L523.183 38.7557ZM532.872 37.278C533.136 37.1973 533.285 36.9178 533.204 36.6537C533.124 36.3896 532.844 36.241 532.58 36.3217L532.872 37.278ZM541.73 33.0866C541.474 33.1898 541.35 33.4811 541.453 33.7372C541.556 33.9934 541.848 34.1173 542.104 34.0141L541.73 33.0866ZM551.02 29.9653C551.266 29.8404 551.365 29.5395 551.24 29.2932C551.115 29.0469 550.814 28.9486 550.568 29.0735L551.02 29.9653ZM559.028 24.3129C558.793 24.4585 558.721 24.7668 558.867 25.0014C559.013 25.236 559.321 25.3081 559.555 25.1625L559.028 24.3129ZM564.075 22.208C564.303 22.0524 564.362 21.7414 564.206 21.5132C564.051 21.2851 563.739 21.2262 563.511 21.3818L564.075 22.208ZM564.339 20.8176C564.111 20.9732 564.052 21.2843 564.207 21.5124C564.363 21.7406 564.674 21.7994 564.902 21.6439L564.339 20.8176ZM569.4 18.7043C569.634 18.5587 569.707 18.2505 569.561 18.0158C569.415 17.7812 569.107 17.709 568.872 17.8545L569.4 18.7043ZM577.44 13.0393C577.193 13.1641 577.095 13.465 577.219 13.7113C577.344 13.9577 577.645 14.0562 577.891 13.9315L577.44 13.0393ZM586.763 9.91152C587.019 9.80854 587.143 9.51734 587.04 9.26112C586.937 9.0049 586.646 8.88068 586.39 8.98367L586.763 9.91152ZM595.656 5.71684C595.392 5.79733 595.243 6.07671 595.323 6.34087C595.404 6.60502 595.683 6.75391 595.947 6.67342L595.656 5.71684ZM605.379 4.23844C605.649 4.18097 605.821 3.91543 605.764 3.64534C605.706 3.37524 605.441 3.20287 605.17 3.26033L605.379 4.23844ZM614.86 1.62987C614.586 1.66397 614.392 1.91377 614.426 2.1878C614.46 2.46182 614.71 2.65632 614.984 2.62221L614.86 1.62987ZM624.692 1.83368C624.968 1.82311 625.183 1.59084 625.173 1.3149C625.162 1.03896 624.93 0.823841 624.654 0.834415L624.692 1.83368ZM634.48 0.877548C634.204 0.864557 633.97 1.07763 633.957 1.35347C633.944 1.62931 634.157 1.86345 634.433 1.87644L634.48 0.877548ZM644.134 2.74919C644.407 2.78564 644.659 2.59329 644.695 2.31956C644.732 2.04584 644.539 1.79439 644.266 1.75794L644.134 2.74919ZM653.941 3.46948C653.672 3.40981 653.405 3.58001 653.345 3.84963C653.286 4.11925 653.456 4.38619 653.725 4.44585L653.941 3.46948ZM663.137 6.95528C663.401 7.03777 663.681 6.89101 663.764 6.62748C663.846 6.36394 663.7 6.08344 663.436 6.00094L663.137 6.95528ZM672.678 9.33485C672.423 9.2301 672.131 9.35231 672.026 9.60781C671.921 9.86332 672.043 10.1554 672.299 10.2601L672.678 9.33485ZM681.144 14.338C681.39 14.4642 681.691 14.3675 681.817 14.1219C681.944 13.8763 681.847 13.5749 681.601 13.4486L681.144 14.338ZM690.14 18.3125C689.907 18.1657 689.598 18.2363 689.451 18.4701C689.304 18.704 689.375 19.0126 689.609 19.1595L690.14 18.3125ZM697.79 24.5417C698.024 24.6884 698.332 24.6178 698.479 24.3838C698.626 24.1499 698.555 23.8413 698.321 23.6946L697.79 24.5417ZM706.797 28.5145C706.551 28.3885 706.25 28.4855 706.124 28.7312C705.998 28.977 706.095 29.2783 706.34 29.4043L706.797 28.5145ZM715.278 33.5095C715.534 33.6138 715.825 33.4911 715.93 33.2354C716.034 32.9797 715.911 32.6879 715.656 32.5836L715.278 33.5095ZM724.832 35.872C724.568 35.7901 724.288 35.9376 724.206 36.2013C724.125 36.4651 724.272 36.7452 724.536 36.827L724.832 35.872ZM734.047 39.3341C734.316 39.3929 734.583 39.2219 734.642 38.9521C734.7 38.6822 734.529 38.4158 734.26 38.357L734.047 39.3341ZM743.866 40.0213C743.592 39.986 743.341 40.1793 743.306 40.4531C743.271 40.727 743.464 40.9777 743.738 41.0131L743.866 40.0213ZM753.537 41.8529C753.813 41.8647 754.046 41.6505 754.058 41.3746C754.069 41.0987 753.855 40.8656 753.579 40.8538L753.537 41.8529ZM763.328 40.8486C763.053 40.8607 762.839 41.0941 762.851 41.3699C762.863 41.6458 763.096 41.8597 763.372 41.8477L763.328 40.8486ZM773.17 40.9964C773.444 40.9606 773.637 40.7097 773.601 40.4359C773.566 40.162 773.315 39.969 773.041 40.0048L773.17 40.9964ZM782.644 38.3263C782.375 38.3856 782.204 38.6523 782.263 38.922C782.323 39.1917 782.589 39.3623 782.859 39.303L782.644 38.3263ZM792.365 36.7772C792.629 36.6948 792.775 36.4143 792.693 36.1508C792.611 35.8872 792.33 35.7404 792.067 35.8228L792.365 36.7772ZM801.234 32.5107C800.979 32.6157 800.857 32.9079 800.962 33.1633C801.067 33.4187 801.359 33.5405 801.615 33.4355L801.234 32.5107ZM810.538 29.3002C810.784 29.1732 810.88 28.8715 810.753 28.6263C810.626 28.381 810.324 28.2851 810.079 28.4121L810.538 29.3002ZM818.534 23.5571C818.301 23.7049 818.231 24.0138 818.379 24.2471C818.527 24.4803 818.836 24.5496 819.069 24.4017L818.534 23.5571ZM827.188 19.0032C827.421 18.8552 827.49 18.5462 827.342 18.3131C827.194 18.0799 826.885 18.0109 826.652 18.1589L827.188 19.0032ZM835.093 13.2951C834.848 13.4226 834.753 13.7245 834.88 13.9695C835.008 14.2145 835.309 14.3097 835.554 14.1822L835.093 13.2951ZM844.302 10.0978C844.557 9.99187 844.678 9.69925 844.572 9.44425C844.466 9.18924 844.173 9.06841 843.918 9.17437L844.302 10.0978ZM853.065 5.82781C852.801 5.91145 852.656 6.1926 852.74 6.45577C852.823 6.71894 853.104 6.86447 853.367 6.78083L853.065 5.82781ZM862.686 4.25464C862.955 4.19391 863.124 3.9263 863.064 3.65692C863.003 3.38754 862.735 3.2184 862.466 3.27913L862.686 4.25464ZM872.051 1.54656C871.777 1.58398 871.586 1.83611 871.623 2.1097C871.661 2.3833 871.913 2.57476 872.187 2.53734L872.051 1.54656ZM881.799 1.64027C882.075 1.62641 882.287 1.3916 882.273 1.11581C882.26 0.840014 882.025 0.627672 881.749 0.641529L881.799 1.64027ZM891.489 0.569803C891.213 0.560011 890.981 0.775787 890.971 1.05176C890.962 1.32772 891.177 1.55938 891.453 1.56918L891.489 0.569803ZM901.078 2.32458C901.352 2.35797 901.602 2.16282 901.635 1.8887C901.668 1.61458 901.473 1.3653 901.199 1.33192L901.078 2.32458ZM910.809 2.92313C910.538 2.86637 910.273 3.03944 910.217 3.30968C910.16 3.57993 910.333 3.84502 910.603 3.90178L910.809 2.92313ZM919.958 6.29046C920.222 6.37022 920.501 6.22056 920.581 5.95618C920.661 5.69181 920.511 5.41284 920.247 5.33308L919.958 6.29046ZM929.441 8.54458C929.185 8.44239 928.894 8.56751 928.792 8.82405C928.689 9.08059 928.815 9.3714 929.071 9.47359L929.441 8.54458ZM937.878 13.4287C938.125 13.5526 938.425 13.4529 938.549 13.2061C938.673 12.9593 938.573 12.6588 938.326 12.5349L937.878 13.4287ZM946.838 17.2739C946.602 17.1293 946.294 17.2029 946.15 17.4382C946.005 17.6734 946.079 17.9814 946.314 18.1259L946.838 17.2739ZM951.18 21.2852C951.409 21.4397 951.72 21.3793 951.874 21.1504C952.029 20.9215 951.969 20.6108 951.74 20.4563L951.18 21.2852ZM953.351 21.5439C953.122 21.3894 952.812 21.4498 952.657 21.6787C952.503 21.9076 952.563 22.2184 952.792 22.3728L953.351 21.5439ZM957.71 25.5656C957.946 25.7102 958.253 25.6366 958.398 25.4013C958.543 25.166 958.469 24.8581 958.234 24.7136L957.71 25.5656ZM966.703 29.4294C966.457 29.3055 966.156 29.4052 966.032 29.652C965.908 29.8988 966.008 30.1993 966.255 30.3232L966.703 29.4294ZM975.175 34.3292C975.432 34.4314 975.722 34.3062 975.825 34.0497C975.927 33.7932 975.802 33.5024 975.545 33.4002L975.175 34.3292ZM984.694 36.5959C984.43 36.5162 984.151 36.6658 984.071 36.9302C983.992 37.1946 984.141 37.4735 984.406 37.5533L984.694 36.5959ZM993.881 39.9727C994.151 40.0295 994.416 39.8564 994.473 39.5861C994.529 39.3159 994.356 39.0508 994.086 38.994L993.881 39.9727ZM1003.65 40.5775C1003.37 40.5441 1003.13 40.7393 1003.09 41.0134C1003.06 41.2875 1003.25 41.5368 1003.53 41.5702L1003.65 40.5775ZM1013.28 42.3353C1013.55 42.3451 1013.78 42.1293 1013.79 41.8533C1013.8 41.5773 1013.59 41.3457 1013.31 41.3359L1013.28 42.3353ZM1023 41.2645C1022.73 41.2784 1022.52 41.5132 1022.53 41.789C1022.54 42.0648 1022.78 42.2771 1023.05 42.2633L1023 41.2645ZM1032.79 41.3547C1033.06 41.3172 1033.26 41.0651 1033.22 40.7915C1033.18 40.5179 1032.93 40.3265 1032.65 40.3639L1032.79 41.3547ZM1042.19 38.6398C1041.92 38.7005 1041.75 38.9681 1041.82 39.2375C1041.88 39.5069 1042.14 39.676 1042.41 39.6153L1042.19 38.6398ZM1051.85 37.0566C1052.11 36.9729 1052.26 36.6918 1052.18 36.4286C1052.09 36.1655 1051.81 36.0199 1051.55 36.1036L1051.85 37.0566ZM1060.65 32.7734C1060.39 32.8794 1060.27 33.172 1060.38 33.427C1060.49 33.682 1060.78 33.8028 1061.03 33.6969L1060.65 32.7734ZM1069.89 29.5599C1070.14 29.4324 1070.23 29.1305 1070.11 28.8856C1069.98 28.6406 1069.68 28.5454 1069.43 28.6729L1069.89 29.5599ZM1077.83 23.8328C1077.6 23.9808 1077.53 24.2898 1077.68 24.5229C1077.83 24.756 1078.13 24.8251 1078.37 24.6771L1077.83 23.8328ZM1086.49 19.2769C1086.72 19.129 1086.79 18.82 1086.64 18.5868C1086.49 18.3537 1086.18 18.2847 1085.95 18.4326L1086.49 19.2769ZM1094.44 13.5414C1094.2 13.6688 1094.1 13.9707 1094.23 14.2157C1094.36 14.4607 1094.66 14.556 1094.9 14.4286L1094.44 13.5414ZM1103.7 10.3228C1103.96 10.217 1104.08 9.92441 1103.97 9.66936C1103.87 9.41431 1103.58 9.29335 1103.32 9.3992L1103.7 10.3228ZM1112.52 6.03752C1112.26 6.121 1112.11 6.40206 1112.2 6.66528C1112.28 6.9285 1112.56 7.07421 1112.83 6.99072L1112.52 6.03752ZM1122.2 4.45591C1122.47 4.39539 1122.64 4.12791 1122.58 3.85848C1122.52 3.58905 1122.25 3.4197 1121.98 3.48023L1122.2 4.45591ZM1131.63 1.7457C1131.35 1.78285 1131.16 2.0348 1131.2 2.30843C1131.23 2.58206 1131.49 2.77376 1131.76 2.7366L1131.63 1.7457ZM1141.43 1.84418C1141.71 1.83063 1141.92 1.59606 1141.91 1.32025C1141.89 1.04444 1141.66 0.831833 1141.38 0.845381L1141.43 1.84418ZM1151.18 0.785038C1150.9 0.774889 1150.67 0.990366 1150.66 1.26632C1150.65 1.54228 1150.87 1.77421 1151.14 1.78436L1151.18 0.785038ZM1160.82 2.5576C1161.1 2.59138 1161.35 2.3966 1161.38 2.12253C1161.42 1.84846 1161.22 1.5989 1160.95 1.56511L1160.82 2.5576ZM1170.61 3.18073C1170.34 3.12353 1170.08 3.29616 1170.02 3.56631C1169.96 3.83647 1170.13 4.10184 1170.4 4.15904L1170.61 3.18073ZM1179.81 6.57818C1180.07 6.65841 1180.35 6.50926 1180.43 6.24503C1180.51 5.9808 1180.36 5.70156 1180.1 5.62132L1179.81 6.57818ZM1189.34 8.8694C1189.09 8.7667 1188.8 8.89125 1188.69 9.14759C1188.59 9.40392 1188.72 9.69498 1188.97 9.79767L1189.34 8.8694ZM1197.82 13.7947C1198.07 13.9191 1198.37 13.8201 1198.49 13.5736C1198.62 13.327 1198.52 13.0263 1198.27 12.9019L1197.82 13.7947ZM1206.82 17.6882C1206.59 17.5431 1206.28 17.6159 1206.14 17.8509C1205.99 18.0858 1206.06 18.3939 1206.3 18.539L1206.82 17.6882ZM1211.51 21.9449C1211.73 22.0999 1212.04 22.0403 1212.2 21.8117C1212.35 21.5832 1212.29 21.2723 1212.07 21.1173L1211.51 21.9449ZM1214.32 22.6473C1214.09 22.4923 1213.78 22.5519 1213.63 22.7804C1213.47 23.0089 1213.53 23.3199 1213.76 23.4749L1214.32 22.6473ZM1218.85 26.8023C1219.08 26.9474 1219.39 26.8744 1219.54 26.6395C1219.68 26.4045 1219.61 26.0964 1219.37 25.9514L1218.85 26.8023ZM1227.53 30.5094C1227.28 30.3852 1226.98 30.4844 1226.85 30.7311C1226.73 30.9777 1226.83 31.2783 1227.08 31.4025L1227.53 30.5094ZM1235.67 35.2727C1235.93 35.3751 1236.22 35.2501 1236.32 34.9937C1236.42 34.7372 1236.3 34.4463 1236.04 34.3439L1235.67 35.2727ZM1244.86 37.4256C1244.59 37.3459 1244.31 37.4956 1244.23 37.7599C1244.15 38.0243 1244.3 38.3033 1244.57 38.383L1244.86 37.4256ZM1253.7 40.7111C1253.97 40.7676 1254.24 40.5943 1254.29 40.324C1254.35 40.0537 1254.18 39.7888 1253.91 39.7323L1253.7 40.7111ZM1263.12 41.2472C1262.85 41.2142 1262.6 41.4098 1262.57 41.6839C1262.53 41.9581 1262.73 42.2071 1263 42.24L1263.12 41.2472ZM1272.4 42.9598C1272.68 42.969 1272.91 42.7527 1272.92 42.4767C1272.93 42.2007 1272.71 41.9696 1272.44 41.9604L1272.4 42.9598ZM1281.78 41.8673C1281.5 41.882 1281.29 42.1174 1281.3 42.3932C1281.32 42.669 1281.55 42.8806 1281.83 42.8659L1281.78 41.8673ZM1291.21 41.9591C1291.48 41.9206 1291.67 41.6678 1291.64 41.3944C1291.6 41.1209 1291.34 40.9304 1291.07 40.9688L1291.21 41.9591ZM1300.26 39.2706C1299.99 39.3325 1299.82 39.6008 1299.88 39.8699C1299.94 40.139 1300.21 40.307 1300.48 40.2451L1300.26 39.2706ZM1309.57 37.7355C1309.83 37.6506 1309.97 37.3687 1309.89 37.1059C1309.8 36.8432 1309.52 36.6991 1309.26 36.7841L1309.57 37.7355ZM1318.01 33.5274C1317.76 33.6348 1317.64 33.9282 1317.74 34.1825C1317.85 34.4369 1318.15 34.556 1318.4 34.4486L1318.01 33.5274ZM1326.92 30.408C1327.16 30.2789 1327.25 29.9764 1327.12 29.7322C1327 29.4881 1326.69 29.3949 1326.45 29.5239L1326.92 30.408ZM1334.51 24.8044C1334.28 24.9541 1334.21 25.2635 1334.36 25.4956C1334.51 25.7277 1334.82 25.7944 1335.05 25.6447L1334.51 24.8044ZM1342.98 20.29C1343.21 20.1407 1343.28 19.8314 1343.13 19.5991C1342.98 19.3668 1342.67 19.2995 1342.44 19.4488L1342.98 20.29ZM1350.9 14.5304C1350.66 14.6583 1350.56 14.9603 1350.69 15.2051C1350.82 15.4498 1351.12 15.5446 1351.37 15.4167L1350.9 14.5304ZM1360.15 11.3176C1360.41 11.2122 1360.53 10.9199 1360.43 10.6647C1360.32 10.4094 1360.03 10.2878 1359.77 10.3932L1360.15 11.3176ZM1368.98 7.07178C1368.72 7.1537 1368.57 7.43389 1368.65 7.6976C1368.73 7.96131 1369.01 8.10868 1369.28 8.02677L1368.98 7.07178ZM1378.66 5.56973C1378.93 5.51186 1379.1 5.24606 1379.04 4.97605C1378.98 4.70604 1378.72 4.53407 1378.45 4.59194L1378.66 5.56973ZM1388.1 2.97283C1387.83 3.00624 1387.63 3.25553 1387.67 3.52964C1387.7 3.80376 1387.95 3.99889 1388.22 3.96549L1388.1 2.97283ZM1397.89 3.22537C1398.17 3.21666 1398.38 2.98586 1398.38 2.70985C1398.37 2.43385 1398.14 2.21716 1397.86 2.22587L1397.89 3.22537ZM1407.65 2.35596C1407.37 2.33992 1407.13 2.5504 1407.12 2.82607C1407.1 3.10175 1407.31 3.33823 1407.59 3.35427L1407.65 2.35596ZM1417.24 4.35116C1417.51 4.39184 1417.76 4.2034 1417.8 3.93027C1417.84 3.65714 1417.66 3.40275 1417.38 3.36207L1417.24 4.35116ZM1426.99 5.23719C1426.72 5.17216 1426.45 5.33701 1426.39 5.60539C1426.32 5.87377 1426.49 6.14404 1426.75 6.20907L1426.99 5.23719ZM1436.07 8.91462C1436.33 9.00352 1436.61 8.86364 1436.7 8.6022C1436.79 8.34076 1436.65 8.05675 1436.39 7.96785L1436.07 8.91462ZM1445.5 11.5328C1445.25 11.4207 1444.96 11.5344 1444.84 11.7868C1444.73 12.0392 1444.84 12.3346 1445.1 12.4467L1445.5 11.5328ZM1453.77 16.778C1454.02 16.9123 1454.32 16.8257 1454.45 16.5844C1454.59 16.3431 1454.5 16.0386 1454.26 15.9043L1453.77 16.778ZM1462.59 21.046C1462.36 20.8905 1462.05 20.9496 1461.9 21.1778C1461.74 21.4061 1461.8 21.7171 1462.03 21.8725L1462.59 21.046ZM1470.62 28.1681C1470.84 28.3335 1471.15 28.2884 1471.32 28.0674C1471.48 27.8463 1471.44 27.5329 1471.22 27.3675L1470.62 28.1681ZM1480.51 34.3188C1480.29 34.1533 1479.97 34.1984 1479.81 34.4195C1479.64 34.6405 1479.69 34.9539 1479.91 35.1194L1480.51 34.3188ZM1489.19 42.0707C1489.42 42.2362 1489.73 42.1911 1489.89 41.97C1490.06 41.7489 1490.01 41.4356 1489.79 41.2701L1489.19 42.0707ZM1499.08 48.2214C1498.86 48.0559 1498.55 48.101 1498.38 48.3221C1498.22 48.5432 1498.26 48.8565 1498.48 49.022L1499.08 48.2214ZM1507.77 55.9733C1507.99 56.1388 1508.3 56.0937 1508.47 55.8726C1508.63 55.6516 1508.59 55.3382 1508.37 55.1727L1507.77 55.9733ZM1517.66 62.124C1517.43 61.9586 1517.12 62.0037 1516.96 62.2247C1516.79 62.4458 1516.84 62.7592 1517.06 62.9246L1517.66 62.124ZM1.04465 53.9089L4.66781 51.3583L4.09218 50.5406L0.469019 53.0911L1.04465 53.9089ZM11.9141 46.2572L19.1604 41.1561L18.5848 40.3383L11.3385 45.4395L11.9141 46.2572ZM26.4068 36.0549L33.6531 30.9538L33.0775 30.1361L25.8311 35.2372L26.4068 36.0549ZM40.8994 25.8527L44.5226 23.3021L43.9469 22.4844L40.3238 25.035L40.8994 25.8527ZM44.5226 23.3021C45.8793 22.347 47.2517 21.4247 48.6386 20.535L48.0987 19.6933C46.6997 20.5907 45.3154 21.5211 43.9469 22.4844L44.5226 23.3021ZM57.2081 15.5471C60.1486 14.0018 63.1408 12.5928 66.1755 11.3201L65.7887 10.3979C62.7275 11.6817 59.7091 13.1031 56.7429 14.6618L57.2081 15.5471ZM75.4746 7.88667C78.6311 6.87448 81.822 6.00268 85.0378 5.27134L84.8161 4.29624C81.5722 5.03396 78.3534 5.91339 75.1693 6.93443L75.4746 7.88667ZM94.7913 3.49314C98.069 3.041 101.362 2.73126 104.662 2.56398L104.611 1.56527C101.283 1.734 97.9609 2.04644 94.6546 2.50252L94.7913 3.49314ZM114.575 2.48992C117.877 2.60788 121.174 2.86839 124.458 3.2715L124.58 2.27895C121.268 1.87232 117.941 1.60955 114.611 1.49056L114.575 2.48992ZM134.237 4.90378C137.464 5.58699 140.667 6.41102 143.839 7.37594L144.13 6.41924C140.931 5.44588 137.699 4.61465 134.445 3.92547L134.237 4.90378ZM153.188 10.6701C156.241 11.8973 159.254 13.2614 162.217 14.7626L162.669 13.8705C159.68 12.3562 156.641 10.9801 153.561 9.74221L153.188 10.6701ZM170.861 19.6219C172.261 20.4908 173.647 21.3925 175.017 22.3272L175.581 21.501C174.198 20.5582 172.8 19.6486 171.388 18.7723L170.861 19.6219ZM175.017 22.3272C176.38 23.2564 177.758 24.1534 179.15 25.0181L179.677 24.1688C178.298 23.3115 176.932 22.4222 175.581 21.501L175.017 22.3272ZM187.737 29.8601C190.68 31.3579 193.673 32.7217 196.705 33.9514L197.081 33.0247C194.075 31.8056 191.108 30.4537 188.191 28.9689L187.737 29.8601ZM205.989 37.2613C209.138 38.2344 212.319 39.0696 215.523 39.7668L215.736 38.7897C212.559 38.0985 209.406 37.2705 206.284 36.3059L205.989 37.2613ZM225.236 41.4502C228.498 41.8734 231.775 42.1568 235.056 42.3006L235.1 41.3015C231.847 41.159 228.598 40.878 225.364 40.4585L225.236 41.4502ZM244.913 42.3125C248.195 42.1767 251.472 41.9012 254.735 41.4861L254.609 40.4941C251.374 40.9057 248.125 41.1788 244.872 41.3134L244.913 42.3125ZM264.452 39.8263C267.658 39.1367 270.841 38.3093 273.992 37.3439L273.699 36.3878C270.576 37.3448 267.42 38.1651 264.242 38.8486L264.452 39.8263ZM283.284 34.0565C286.32 32.8342 289.315 31.4777 292.262 29.987L291.811 29.0947C288.889 30.5724 285.92 31.9171 282.911 33.1289L283.284 34.0565ZM300.861 25.1659C302.255 24.3046 303.635 23.4109 305 22.4851L304.439 21.6575C303.085 22.5754 301.717 23.4613 300.336 24.3153L300.861 25.1659ZM305 22.4851L305.523 22.1304L304.961 21.3029L304.439 21.6575L305 22.4851ZM306.568 21.4212L307.091 21.0666L306.53 20.239L306.007 20.5936L306.568 21.4212ZM307.091 21.0666C308.433 20.1566 309.789 19.2786 311.159 18.4326L310.633 17.5818C309.251 18.4353 307.883 19.321 306.53 20.239L307.091 21.0666ZM319.613 13.7007C322.51 12.2387 325.456 10.9099 328.441 9.71401L328.069 8.78574C325.058 9.99225 322.086 11.3329 319.162 12.8079L319.613 13.7007ZM337.579 6.50288C340.678 5.56182 343.808 4.75756 346.961 4.09003L346.754 3.11172C343.573 3.78518 340.415 4.59659 337.288 5.54602L337.579 6.50288ZM356.515 2.49275C359.724 2.09721 362.946 1.84015 366.171 1.72151L366.135 0.722189C362.88 0.841881 359.63 1.10122 356.393 1.50026L356.515 2.49275ZM375.858 1.78117C379.082 1.93953 382.3 2.23625 385.504 2.67127L385.638 1.68036C382.406 1.24149 379.16 0.942137 375.907 0.782373L375.858 1.78117ZM395.038 4.38611C398.182 5.09241 401.302 5.93517 404.389 6.91433L404.692 5.96112C401.577 4.97325 398.429 4.123 395.257 3.41043L395.038 4.38611ZM413.487 10.2378C416.457 11.4703 419.386 12.8353 422.265 14.3329L422.727 13.4457C419.822 11.9348 416.867 10.5576 413.87 9.31414L413.487 10.2378ZM430.661 19.1686C432.02 20.0314 433.365 20.926 434.695 21.8525L435.267 21.0319C433.925 20.0972 432.568 19.1947 431.196 18.3243L430.661 19.1686ZM434.695 21.8525C436.04 22.789 437.4 23.6933 438.774 24.5653L439.31 23.721C437.948 22.8566 436.6 21.9602 435.267 21.0319L434.695 21.8525ZM447.262 29.4523C450.173 30.9655 453.135 32.3444 456.138 33.5891L456.521 32.6653C453.544 31.4316 450.609 30.0648 447.723 28.565L447.262 29.4523ZM465.337 36.9441C468.458 37.9321 471.613 38.7818 474.792 39.4934L475.01 38.5175C471.859 37.8122 468.732 36.97 465.638 35.9907L465.337 36.9441ZM484.432 41.2185C487.67 41.6552 490.924 41.9518 494.183 42.1082L494.231 41.1093C491.001 40.9543 487.776 40.6603 484.565 40.2275L484.432 41.2185ZM503.976 42.1566C507.236 42.0324 510.493 41.768 513.736 41.3634L513.612 40.3711C510.398 40.7722 507.17 41.0342 503.938 41.1573L503.976 42.1566ZM523.392 39.7336C526.578 39.0536 529.741 38.2351 532.872 37.278L532.58 36.3217C529.476 37.2703 526.341 38.0816 523.183 38.7557L523.392 39.7336ZM542.104 34.0141C545.119 32.7992 548.094 31.4496 551.02 29.9653L550.568 29.0735C547.667 30.5447 544.719 31.8824 541.73 33.0866L542.104 34.0141ZM559.555 25.1625C560.938 24.304 562.307 23.4133 563.661 22.4901L563.098 21.6639C561.755 22.579 560.399 23.462 559.028 24.3129L559.555 25.1625ZM563.661 22.4901L564.075 22.208L563.511 21.3818L563.098 21.6639L563.661 22.4901ZM564.902 21.6439L565.316 21.3618L564.752 20.5356L564.339 20.8176L564.902 21.6439ZM565.316 21.3618C566.662 20.4436 568.024 19.5578 569.4 18.7043L568.872 17.8545C567.485 18.7156 566.111 19.6093 564.752 20.5356L565.316 21.3618ZM577.891 13.9315C580.802 12.4575 583.762 11.1176 586.763 9.91152L586.39 8.98367C583.362 10.2004 580.376 11.5523 577.44 13.0393L577.891 13.9315ZM595.947 6.67342C599.062 5.72447 602.209 4.91286 605.379 4.23844L605.17 3.26033C601.973 3.9407 598.798 4.75949 595.656 5.71684L595.947 6.67342ZM614.984 2.62221C618.209 2.22077 621.448 1.95798 624.692 1.83368L624.654 0.834415C621.382 0.959799 618.114 1.2249 614.86 1.62987L614.984 2.62221ZM634.433 1.87644C637.674 2.02913 640.911 2.32009 644.134 2.74919L644.266 1.75794C641.015 1.32508 637.75 1.03157 634.48 0.877548L634.433 1.87644ZM653.725 4.44585C656.89 5.14609 660.03 5.98261 663.137 6.95528L663.436 6.00094C660.301 5.01972 657.133 4.17585 653.941 3.46948L653.725 4.44585ZM672.299 10.2601C675.291 11.487 678.243 12.8463 681.144 14.338L681.601 13.4486C678.674 11.9439 675.697 10.5725 672.678 9.33485L672.299 10.2601ZM689.609 19.1595C690.98 20.0204 692.337 20.9132 693.679 21.8379L694.247 21.0144C692.893 20.0817 691.524 19.181 690.14 18.3125L689.609 19.1595ZM693.679 21.8379C695.034 22.7716 696.405 23.6729 697.79 24.5417L698.321 23.6946C696.948 22.8334 695.59 21.94 694.247 21.0144L693.679 21.8379ZM706.34 29.4043C709.272 30.9076 712.254 32.276 715.278 33.5095L715.656 32.5836C712.658 31.361 709.702 30.0046 706.797 28.5145L706.34 29.4043ZM724.536 36.827C727.676 37.8015 730.849 38.6372 734.047 39.3341L734.26 38.357C731.091 37.6663 727.945 36.8379 724.832 35.872L724.536 36.827ZM743.738 41.0131C746.993 41.4338 750.263 41.7137 753.537 41.8529L753.579 40.8538C750.334 40.7159 747.093 40.4383 743.866 40.0213L743.738 41.0131ZM763.372 41.8477C766.646 41.7049 769.916 41.4212 773.17 40.9964L773.041 40.0048C769.815 40.4259 766.574 40.7071 763.328 40.8486L763.372 41.8477ZM782.859 39.303C786.055 38.6007 789.227 37.7588 792.365 36.7772L792.067 35.8228C788.956 36.7957 785.812 37.6302 782.644 38.3263L782.859 39.303ZM801.615 33.4355C804.635 32.1931 807.612 30.8147 810.538 29.3002L810.079 28.4121C807.179 29.9131 804.227 31.2793 801.234 32.5107L801.615 33.4355ZM819.069 24.4017C820.45 23.5267 821.816 22.6188 823.167 21.6782L822.595 20.8576C821.257 21.7899 819.902 22.6897 818.534 23.5571L819.069 24.4017ZM823.167 21.6782C824.493 20.7549 825.833 19.8632 827.188 19.0032L826.652 18.1589C825.286 19.0265 823.933 19.9261 822.595 20.8576L823.167 21.6782ZM835.554 14.1822C838.424 12.689 841.342 11.3275 844.302 10.0978L843.918 9.17437C840.932 10.415 837.988 11.7886 835.093 13.2951L835.554 14.1822ZM853.367 6.78083C856.444 5.80311 859.553 4.96102 862.686 4.25464L862.466 3.27913C859.305 3.99179 856.168 4.84137 853.065 5.82781L853.367 6.78083ZM872.187 2.53734C875.379 2.10075 878.586 1.8017 881.799 1.64027L881.749 0.641529C878.508 0.80439 875.272 1.10609 872.051 1.54656L872.187 2.53734ZM891.453 1.56918C894.668 1.68327 897.88 1.93505 901.078 2.32458L901.199 1.33192C897.972 0.938927 894.732 0.684912 891.489 0.569803L891.453 1.56918ZM910.603 3.90178C913.746 4.56194 916.867 5.35814 919.958 6.29046L920.247 5.33308C917.129 4.39246 913.98 3.58917 910.809 2.92313L910.603 3.90178ZM929.071 9.47359C932.048 10.6596 934.987 11.9779 937.878 13.4287L938.326 12.5349C935.41 11.0712 932.445 9.74113 929.441 8.54458L929.071 9.47359ZM946.314 18.1259C947.681 18.9659 949.035 19.8377 950.374 20.7414L950.934 19.9125C949.583 19.0008 948.217 18.1213 946.838 17.2739L946.314 18.1259ZM950.374 20.7414L951.18 21.2852L951.74 20.4563L950.934 19.9125L950.374 20.7414ZM952.792 22.3728L953.598 22.9166L954.157 22.0877L953.351 21.5439L952.792 22.3728ZM953.598 22.9166C954.954 23.8319 956.325 24.7149 957.71 25.5656L958.234 24.7136C956.861 23.8703 955.502 22.995 954.157 22.0877L953.598 22.9166ZM966.255 30.3232C969.183 31.7926 972.159 33.1279 975.175 34.3292L975.545 33.4002C972.556 32.2095 969.606 30.8859 966.703 29.4294L966.255 30.3232ZM984.406 37.5533C987.536 38.4976 990.697 39.304 993.881 39.9727L994.086 38.994C990.931 38.3313 987.797 37.5319 984.694 36.5959L984.406 37.5533ZM1003.53 41.5702C1006.77 41.9647 1010.02 42.2197 1013.28 42.3353L1013.31 41.3359C1010.08 41.2213 1006.86 40.9686 1003.65 40.5775L1003.53 41.5702ZM1023.05 42.2633C1026.31 42.0997 1029.56 41.7969 1032.79 41.3547L1032.65 40.3639C1029.45 40.8022 1026.23 41.1024 1023 41.2645L1023.05 42.2633ZM1042.41 39.6153C1045.59 38.8998 1048.74 38.0469 1051.85 37.0566L1051.55 36.1036C1048.46 37.0852 1045.34 37.9306 1042.19 38.6398L1042.41 39.6153ZM1061.03 33.6969C1064.03 32.4514 1066.99 31.0723 1069.89 29.5599L1069.43 28.6729C1066.55 30.172 1063.62 31.5389 1060.65 32.7734L1061.03 33.6969ZM1078.37 24.6771C1079.74 23.806 1081.1 22.9029 1082.44 21.9678L1081.87 21.1472C1080.54 22.0742 1079.19 22.9694 1077.83 23.8328L1078.37 24.6771ZM1082.44 21.9678C1083.77 21.0389 1085.12 20.142 1086.49 19.2769L1085.95 18.4326C1084.57 19.3053 1083.21 20.2102 1081.87 21.1472L1082.44 21.9678ZM1094.9 14.4286C1097.79 12.9272 1100.73 11.5586 1103.7 10.3228L1103.32 9.3992C1100.32 10.6459 1097.35 12.0267 1094.44 13.5414L1094.9 14.4286ZM1112.83 6.99072C1115.92 6.00901 1119.05 5.16406 1122.2 4.45591L1121.98 3.48023C1118.8 4.19465 1115.65 5.04709 1112.52 6.03752L1112.83 6.99072ZM1131.76 2.7366C1134.97 2.30045 1138.2 2.00295 1141.43 1.84418L1141.38 0.845381C1138.12 1.00556 1134.87 1.30568 1131.63 1.7457L1131.76 2.7366ZM1151.14 1.78436C1154.38 1.90331 1157.61 2.16104 1160.82 2.5576L1160.95 1.56511C1157.7 1.16504 1154.44 0.905039 1151.18 0.785038L1151.14 1.78436ZM1170.4 4.15904C1173.56 4.82831 1176.7 5.63467 1179.81 6.57818L1180.1 5.62132C1176.97 4.66944 1173.8 3.85593 1170.61 3.18073L1170.4 4.15904ZM1188.97 9.79767C1191.96 10.9966 1194.92 12.329 1197.82 13.7947L1198.27 12.9019C1195.34 11.4232 1192.36 10.079 1189.34 8.8694L1188.97 9.79767ZM1206.3 18.539C1207.67 19.3872 1209.03 20.2675 1210.38 21.1798L1210.94 20.3523C1209.58 19.4319 1208.21 18.5438 1206.82 17.6882L1206.3 18.539ZM1210.38 21.1798L1211.51 21.9449L1212.07 21.1173L1210.94 20.3523L1210.38 21.1798ZM1213.76 23.4749L1214.89 24.2399L1215.45 23.4123L1214.32 22.6473L1213.76 23.4749ZM1214.89 24.2399C1216.19 25.1254 1217.51 25.9795 1218.85 26.8023L1219.37 25.9514C1218.05 25.1361 1216.74 24.2897 1215.45 23.4123L1214.89 24.2399ZM1227.08 31.4025C1229.9 32.823 1232.76 34.113 1235.67 35.2727L1236.04 34.3439C1233.16 33.1949 1230.32 31.9168 1227.53 30.5094L1227.08 31.4025ZM1244.57 38.383C1247.59 39.2931 1250.63 40.069 1253.7 40.7111L1253.91 39.7323C1250.87 39.0961 1247.85 38.3273 1244.86 37.4256L1244.57 38.383ZM1263 42.24C1266.13 42.6156 1269.26 42.8555 1272.4 42.9598L1272.44 41.9604C1269.33 41.857 1266.22 41.6193 1263.12 41.2472L1263 42.24ZM1281.83 42.8659C1284.96 42.6991 1288.1 42.3967 1291.21 41.9591L1291.07 40.9688C1287.98 41.4025 1284.88 41.702 1281.78 41.8673L1281.83 42.8659ZM1300.48 40.2451C1303.54 39.5421 1306.57 38.7055 1309.57 37.7355L1309.26 36.7841C1306.29 37.7451 1303.28 38.574 1300.26 39.2706L1300.48 40.2451ZM1318.4 34.4486C1321.28 33.2312 1324.12 31.8843 1326.92 30.408L1326.45 29.5239C1323.68 30.9867 1320.87 32.3212 1318.01 33.5274L1318.4 34.4486ZM1335.05 25.6447C1336.37 24.7956 1337.67 23.9153 1338.96 23.0039L1338.38 22.1877C1337.1 23.0907 1335.81 23.963 1334.51 24.8044L1335.05 25.6447ZM1338.96 23.0039C1340.28 22.066 1341.62 21.1613 1342.98 20.29L1342.44 19.4488C1341.07 20.3281 1339.72 21.2411 1338.38 22.1877L1338.96 23.0039ZM1351.37 15.4167C1354.25 13.9113 1357.18 12.545 1360.15 11.3176L1359.77 10.3932C1356.77 11.632 1353.81 13.011 1350.9 14.5304L1351.37 15.4167ZM1369.28 8.02677C1372.37 7.06466 1375.5 6.2457 1378.66 5.56973L1378.45 4.59194C1375.27 5.27417 1372.11 6.10074 1368.98 7.07178L1369.28 8.02677ZM1388.22 3.96549C1391.44 3.57394 1394.66 3.32728 1397.89 3.22537L1397.86 2.22587C1394.6 2.32872 1391.34 2.57766 1388.1 2.97283L1388.22 3.96549ZM1407.59 3.35427C1410.81 3.542 1414.03 3.87434 1417.24 4.35116L1417.38 3.36207C1414.15 2.88083 1410.9 2.54542 1407.65 2.35596L1407.59 3.35427ZM1426.75 6.20907C1429.89 6.96863 1433 7.87053 1436.07 8.91462L1436.39 7.96785C1433.29 6.91406 1430.15 6.0038 1426.99 5.23719L1426.75 6.20907ZM1445.1 12.4467C1448.04 13.7528 1450.93 15.1966 1453.77 16.778L1454.26 15.9043C1451.39 14.3082 1448.47 12.851 1445.5 11.5328L1445.1 12.4467ZM1462.03 21.8725C1463.36 22.7795 1464.68 23.7195 1465.98 24.6924L1466.58 23.8918C1465.26 22.91 1463.93 21.9614 1462.59 21.046L1462.03 21.8725ZM1465.98 24.6924L1470.62 28.1681L1471.22 27.3675L1466.58 23.8918L1465.98 24.6924ZM1479.91 35.1194L1489.19 42.0707L1489.79 41.2701L1480.51 34.3188L1479.91 35.1194ZM1498.48 49.022L1507.77 55.9733L1508.37 55.1727L1499.08 48.2214L1498.48 49.022ZM1517.06 62.9246L1521.7 66.4003L1522.3 65.5997L1517.66 62.124L1517.06 62.9246Z" fill="black"/>
</svg>
