<svg width="22" height="19" viewBox="0 0 22 19" fill="none" xmlns="http://www.w3.org/2000/svg">
<path d="M2.63922 12.0871L12.9762 12.0871L10.4469 14.5698C9.95111 15.0565 9.67257 15.7166 9.67257 16.4049C9.67257 17.0931 9.95111 17.7532 10.4469 18.2399C10.9427 18.7266 11.6152 19 12.3164 19C13.0176 19 13.69 18.7266 14.1858 18.2399L21.2237 11.3315C21.4698 11.0909 21.665 10.8049 21.7982 10.49C21.9314 10.1751 22 9.83746 22 9.4965C22 9.15553 21.9314 8.81792 21.7982 8.50303C21.665 8.18813 21.4698 7.90214 21.2237 7.66146L14.1858 0.753095C13.6878 0.270559 13.0162 1.12196e-06 12.3164 1.06078e-06C11.6166 9.99602e-07 10.945 0.270558 10.4469 0.753095C10.2009 0.993773 10.0057 1.27976 9.87245 1.59466C9.73924 1.90955 9.67067 2.24716 9.67067 2.58813C9.67067 2.92909 9.73924 3.2667 9.87245 3.5816C10.0057 3.8965 10.2009 4.18248 10.4469 4.42316L12.9762 6.90586L2.63922 6.90586C1.93926 6.90586 1.26796 7.1788 0.773011 7.66464C0.278062 8.15048 8.90889e-07 8.80942 8.30823e-07 9.4965C7.70756e-07 10.1836 0.278062 10.8425 0.773011 11.3284C1.26796 11.8142 1.93926 12.0871 2.63922 12.0871Z"/>
</svg>
