<svg width="17" height="23" viewBox="0 0 17 23" fill="none" xmlns="http://www.w3.org/2000/svg">
<path d="M8.5 3.59375C9.22624 3.59375 9.92627 3.68734 10.6001 3.87451C11.2739 4.06169 11.9028 4.32747 12.4868 4.67188C13.0708 5.01628 13.6061 5.42806 14.0928 5.90723C14.5794 6.38639 14.9912 6.91797 15.3281 7.50195C15.665 8.08594 15.9308 8.71859 16.1255 9.3999C16.3201 10.0812 16.4137 10.7812 16.4062 11.5C16.4062 12.2262 16.3127 12.9263 16.1255 13.6001C15.9383 14.2739 15.6725 14.9028 15.3281 15.4868C14.9837 16.0708 14.5719 16.6061 14.0928 17.0928C13.6136 17.5794 13.082 17.9912 12.498 18.3281C11.9141 18.665 11.2814 18.9308 10.6001 19.1255C9.91878 19.3202 9.21875 19.4137 8.5 19.4062C7.77376 19.4062 7.07373 19.3127 6.3999 19.1255C5.72607 18.9383 5.09717 18.6725 4.51318 18.3281C3.9292 17.9837 3.39388 17.5719 2.90723 17.0928C2.42057 16.6136 2.00879 16.082 1.67188 15.498C1.33496 14.9141 1.06917 14.2814 0.874512 13.6001C0.67985 12.9188 0.586263 12.2188 0.59375 11.5C0.59375 10.7738 0.687337 10.0737 0.874512 9.3999C1.06169 8.72607 1.32747 8.09717 1.67188 7.51318C2.01628 6.9292 2.42806 6.39388 2.90723 5.90723C3.38639 5.42057 3.91797 5.00879 4.50195 4.67188C5.08594 4.33496 5.71859 4.06917 6.3999 3.87451C7.08122 3.67985 7.78125 3.58626 8.5 3.59375ZM8.5 17.9688C9.39095 17.9688 10.2295 17.8003 11.0156 17.4634C11.8018 17.1265 12.4868 16.6623 13.0708 16.0708C13.6548 15.4793 14.1152 14.7943 14.4521 14.0156C14.7891 13.237 14.9613 12.3984 14.9688 11.5C14.9688 10.609 14.8003 9.77051 14.4634 8.98438C14.1265 8.19824 13.6623 7.51318 13.0708 6.9292C12.4793 6.34521 11.7943 5.88477 11.0156 5.54785C10.237 5.21094 9.39844 5.03874 8.5 5.03125C7.60905 5.03125 6.77051 5.19971 5.98438 5.53662C5.19824 5.87354 4.51318 6.33773 3.9292 6.9292C3.34521 7.52067 2.88477 8.20573 2.54785 8.98438C2.21094 9.76302 2.03874 10.6016 2.03125 11.5C2.03125 12.391 2.19971 13.2295 2.53662 14.0156C2.87354 14.8018 3.33773 15.4868 3.9292 16.0708C4.52067 16.6548 5.20573 17.1152 5.98438 17.4521C6.76302 17.7891 7.60156 17.9613 8.5 17.9688ZM8.5 11.5H11.375V12.9375H7.0625V7.1875H8.5V11.5ZM15.6201 4.37988C14.6618 3.42904 13.5724 2.7028 12.3521 2.20117C11.1317 1.69954 9.84766 1.44499 8.5 1.4375C7.15234 1.4375 5.86833 1.68831 4.64795 2.18994C3.42757 2.69157 2.33822 3.42155 1.37988 4.37988L0.369141 3.36914C0.908203 2.83008 1.49219 2.35091 2.12109 1.93164C2.75 1.51237 3.40885 1.16048 4.09766 0.875977C4.78646 0.591471 5.50146 0.374349 6.24268 0.224609C6.98389 0.0748698 7.73633 0 8.5 0C9.26367 0 10.0124 0.0711263 10.7461 0.213379C11.4798 0.355632 12.1948 0.572754 12.8911 0.864746C13.5874 1.15674 14.25 1.51237 14.8789 1.93164C15.5078 2.35091 16.0918 2.83008 16.6309 3.36914L15.6201 4.37988ZM1.37988 18.6201C2.33822 19.571 3.42757 20.2972 4.64795 20.7988C5.86833 21.3005 7.15234 21.555 8.5 21.5625C9.84766 21.5625 11.1317 21.3117 12.3521 20.8101C13.5724 20.3084 14.6618 19.5785 15.6201 18.6201L16.6309 19.6309C16.0918 20.1699 15.5078 20.6491 14.8789 21.0684C14.25 21.4876 13.5911 21.8395 12.9023 22.124C12.2135 22.4085 11.4985 22.6257 10.7573 22.7754C10.0161 22.9251 9.26367 23 8.5 23C7.73633 23 6.98763 22.9289 6.25391 22.7866C5.52018 22.6444 4.80518 22.4272 4.10889 22.1353C3.4126 21.8433 2.75 21.4876 2.12109 21.0684C1.49219 20.6491 0.908203 20.1699 0.369141 19.6309L1.37988 18.6201Z" fill="black"/>
</svg>
