<svg width="48" height="40" viewBox="0 0 48 40" fill="none" xmlns="http://www.w3.org/2000/svg">
<path d="M2.77113 27.5184C1.24161 27.5184 0 26.2546 0 24.6979V17.088C0 13.8737 2.5732 11.2546 5.73121 11.2546C6.22605 11.2546 6.63093 11.6667 6.63093 12.1704C6.63093 12.6741 6.22605 13.0861 5.73121 13.0861C3.56289 13.0861 1.79044 14.881 1.79044 17.0971V24.707C1.79044 25.2565 2.2313 25.7052 2.77113 25.7052C3.31097 25.7052 3.75183 25.2565 3.75183 24.707V19.9451C3.75183 19.4415 4.1567 19.0294 4.65155 19.0294C5.14639 19.0294 5.55127 19.4415 5.55127 19.9451V24.707C5.54227 26.2455 4.30066 27.5184 2.77113 27.5184Z" fill="#4288BD"/>
<path d="M16.5996 13.9194C16.4286 13.9194 16.2487 13.8644 16.0957 13.7637C15.4479 13.315 14.6832 13.0769 13.8914 13.0769C13.3966 13.0769 12.9917 12.6648 12.9917 12.1611C12.9917 11.6574 13.3966 11.2454 13.8914 11.2454C15.0431 11.2454 16.1497 11.5933 17.1034 12.2435C17.5173 12.5274 17.6163 13.0952 17.3463 13.5073C17.1754 13.7728 16.8875 13.9194 16.5996 13.9194Z" fill="#4288BD"/>
<path d="M9.81599 10.293C7.07184 10.293 4.83154 8.02194 4.83154 5.21974C4.83154 2.4267 7.06285 0.146484 9.81599 0.146484C12.5601 0.146484 14.8004 2.41755 14.8004 5.21974C14.7914 8.01278 12.5601 10.293 9.81599 10.293ZM9.81599 1.96883C8.05254 1.96883 6.62198 3.42487 6.62198 5.21974C6.62198 7.01462 8.05254 8.47066 9.81599 8.47066C11.5794 8.47066 13.01 7.01462 13.01 5.21974C13.001 3.42487 11.5704 1.96883 9.81599 1.96883Z" fill="#4288BD"/>
<path d="M11.8855 27.5183H2.7713C2.27646 27.5183 1.87158 27.1062 1.87158 26.6025C1.87158 26.0989 2.27646 25.6868 2.7713 25.6868H11.8855C12.3803 25.6868 12.7852 26.0989 12.7852 26.6025C12.7852 27.1062 12.3803 27.5183 11.8855 27.5183Z" fill="#4288BD"/>
<path d="M9.81591 15.8699C9.64497 15.8699 9.46502 15.8149 9.31207 15.7142L5.22735 12.912C4.81348 12.6281 4.70551 12.0603 4.98442 11.6483C5.26334 11.227 5.82116 11.1171 6.22603 11.401L9.80692 13.8552L13.3878 11.401C13.8017 11.1171 14.3505 11.227 14.6294 11.6483C14.9083 12.0695 14.8004 12.6281 14.3865 12.912L10.3018 15.705C10.1578 15.8149 9.98686 15.8699 9.81591 15.8699Z" fill="#4288BD"/>
<path d="M16.9957 30.064C15.4662 30.064 14.2246 28.8003 14.2246 27.2435V19.6336C14.2246 16.4193 16.7978 13.8003 19.9558 13.8003C20.4507 13.8003 20.8555 14.2124 20.8555 14.716C20.8555 15.2197 20.4507 15.6318 19.9558 15.6318C17.7875 15.6318 16.015 17.4267 16.015 19.6428V27.2527C16.015 27.8021 16.4559 28.2508 16.9957 28.2508C17.5356 28.2508 17.9764 27.8021 17.9764 27.2527V22.4908C17.9764 21.9871 18.3813 21.575 18.8762 21.575C19.371 21.575 19.7759 21.9871 19.7759 22.4908V27.2527C19.7669 28.8003 18.5253 30.064 16.9957 30.064Z" fill="#4288BD"/>
<path d="M31.0764 30.0642C29.5469 30.0642 28.3052 28.8004 28.3052 27.2436V22.4817C28.3052 21.9781 28.7101 21.566 29.205 21.566C29.6998 21.566 30.1047 21.9781 30.1047 22.4817V27.2436C30.1047 27.7931 30.5455 28.2418 31.0854 28.2418C31.6252 28.2418 32.0661 27.7931 32.0661 27.2436V19.6338C32.0661 17.4268 30.3026 15.6228 28.1253 15.6228C27.6305 15.6228 27.2256 15.2107 27.2256 14.707C27.2256 14.2033 27.6305 13.7913 28.1253 13.7913C31.2833 13.7913 33.8565 16.4103 33.8565 19.6246V27.2345C33.8475 28.8004 32.6059 30.0642 31.0764 30.0642Z" fill="#4288BD"/>
<path d="M24.0313 12.8389C21.2872 12.8389 19.0469 10.5678 19.0469 7.76564C19.0469 4.9726 21.2782 2.69238 24.0313 2.69238C26.7755 2.69238 29.0158 4.96344 29.0158 7.76564C29.0158 10.5678 26.7845 12.8389 24.0313 12.8389ZM24.0313 4.52388C22.2679 4.52388 20.8373 5.97993 20.8373 7.7748C20.8373 9.56967 22.2679 11.0257 24.0313 11.0257C25.7948 11.0257 27.2253 9.56967 27.2253 7.7748C27.2253 5.97993 25.7948 4.52388 24.0313 4.52388Z" fill="#4288BD"/>
<path d="M31.0765 30.0642H16.9959C16.5011 30.0642 16.0962 29.6521 16.0962 29.1484C16.0962 28.6448 16.5011 28.2327 16.9959 28.2327H31.0765C31.5714 28.2327 31.9762 28.6448 31.9762 29.1484C31.9672 29.6521 31.5714 30.0642 31.0765 30.0642Z" fill="#4288BD"/>
<path d="M24.0317 18.4156C23.8608 18.4156 23.6808 18.3607 23.5279 18.26L19.4432 15.4669C19.0293 15.183 18.9213 14.6153 19.2002 14.2032C19.4792 13.7819 20.037 13.672 20.4419 13.9559L24.0227 16.4101L27.6036 13.9559C28.0175 13.672 28.5663 13.7819 28.8452 14.2032C29.1241 14.6244 29.0162 15.183 28.6023 15.4669L24.5176 18.26C24.3826 18.3699 24.2117 18.4156 24.0317 18.4156Z" fill="#4288BD"/>
<path d="M45.2287 27.3627C43.6992 27.3627 42.4576 26.099 42.4576 24.5422V19.7803C42.4576 19.2767 42.8625 18.8646 43.3573 18.8646C43.8522 18.8646 44.257 19.2767 44.257 19.7803V24.5422C44.257 25.0917 44.6979 25.5404 45.2377 25.5404C45.7776 25.5404 46.2184 25.0917 46.2184 24.5422V16.9323C46.2184 14.7254 44.455 12.9213 42.2776 12.9213C41.7828 12.9213 41.3779 12.5093 41.3779 12.0056C41.3779 11.5019 41.7828 11.0898 42.2776 11.0898C45.4357 11.0898 48.0089 13.7089 48.0089 16.9232V24.5331C47.9999 26.099 46.7582 27.3627 45.2287 27.3627Z" fill="#4288BD"/>
<path d="M31.3731 13.7821C31.0852 13.7821 30.8062 13.6448 30.6353 13.3884C30.3564 12.9763 30.4643 12.4085 30.8692 12.1246C31.8229 11.4561 32.9386 11.1082 34.0992 11.1082C34.5941 11.1082 34.9989 11.5202 34.9989 12.0239C34.9989 12.5276 34.5941 12.9397 34.0992 12.9397C33.2985 12.9397 32.5337 13.1778 31.8769 13.6356C31.724 13.7272 31.553 13.7821 31.3731 13.7821Z" fill="#4288BD"/>
<path d="M38.1841 10.1465C35.44 10.1465 33.1997 7.87546 33.1997 5.07326C33.1997 2.28022 35.431 0 38.1841 0C40.9283 0 43.1686 2.27106 43.1686 5.07326C43.1686 7.8663 40.9373 10.1465 38.1841 10.1465ZM38.1841 1.82234C36.4207 1.82234 34.9901 3.27839 34.9901 5.07326C34.9901 6.86813 36.4207 8.32418 38.1841 8.32418C39.9476 8.32418 41.3782 6.86813 41.3782 5.07326C41.3782 3.27839 39.9476 1.82234 38.1841 1.82234Z" fill="#4288BD"/>
<path d="M45.229 27.3628H36.1868C35.692 27.3628 35.2871 26.9507 35.2871 26.447C35.2871 25.9433 35.692 25.5312 36.1868 25.5312H45.229C45.7238 25.5312 46.1287 25.9433 46.1287 26.447C46.1287 26.9507 45.7238 27.3628 45.229 27.3628Z" fill="#4288BD"/>
<path d="M38.1841 15.7235C38.0131 15.7235 37.8332 15.6686 37.6802 15.5678L33.5955 12.7748C33.1816 12.4909 33.0737 11.9231 33.3526 11.511C33.6315 11.0898 34.1893 10.9799 34.5942 11.2638L38.1751 13.718L41.756 11.2638C42.1698 10.9799 42.7187 11.0898 42.9976 11.511C43.2765 11.9323 43.1685 12.4909 42.7546 12.7748L38.6879 15.5678C38.535 15.6686 38.364 15.7235 38.1841 15.7235Z" fill="#4288BD"/>
<path d="M24.0315 40C22.385 40 21.0444 38.6356 21.0444 36.9597C21.0444 35.2839 22.385 33.9194 24.0315 33.9194C25.678 33.9194 27.0186 35.2839 27.0186 36.9597C27.0186 38.6356 25.678 40 24.0315 40ZM24.0315 35.7418C23.3747 35.7418 22.8349 36.2912 22.8349 36.9597C22.8349 37.6282 23.3747 38.1777 24.0315 38.1777C24.6883 38.1777 25.2281 37.6282 25.2281 36.9597C25.2281 36.2912 24.6973 35.7418 24.0315 35.7418Z" fill="#4288BD"/>
<path d="M38.1838 36.4651C36.5374 36.4651 35.1968 35.1006 35.1968 33.4248C35.1968 31.749 36.5374 30.3845 38.1838 30.3845C39.8303 30.3845 41.1709 31.749 41.1709 33.4248C41.1709 35.1006 39.8303 36.4651 38.1838 36.4651ZM38.1838 32.216C37.527 32.216 36.9872 32.7655 36.9872 33.434C36.9872 34.1025 37.527 34.6519 38.1838 34.6519C38.8406 34.6519 39.3805 34.1025 39.3805 33.434C39.3805 32.7563 38.8496 32.216 38.1838 32.216Z" fill="#4288BD"/>
<path d="M9.92408 36.4651C8.27759 36.4651 6.93701 35.1006 6.93701 33.4248C6.93701 31.749 8.27759 30.3845 9.92408 30.3845C11.5706 30.3845 12.9111 31.749 12.9111 33.4248C12.9021 35.1006 11.5706 36.4651 9.92408 36.4651ZM9.92408 32.216C9.26728 32.216 8.72745 32.7655 8.72745 33.434C8.72745 34.1025 9.26728 34.6519 9.92408 34.6519C10.5809 34.6519 11.1207 34.1025 11.1207 33.434C11.1117 32.7563 10.5809 32.216 9.92408 32.216Z" fill="#4288BD"/>
<path d="M21.9444 37.8754H11.3007C10.0411 37.8754 9.02441 36.8315 9.02441 35.5586C9.02441 35.0549 9.42929 34.6428 9.92413 34.6428C10.419 34.6428 10.8239 35.0549 10.8239 35.5586C10.8239 35.8333 11.0398 36.0531 11.3097 36.0531H21.9534C22.4482 36.0531 22.8531 36.4652 22.8531 36.9688C22.8441 37.4633 22.4392 37.8754 21.9444 37.8754Z" fill="#4288BD"/>
<path d="M24.0315 40C22.385 40 21.0444 38.6356 21.0444 36.9597C21.0444 35.2839 22.385 33.9194 24.0315 33.9194C25.678 33.9194 27.0186 35.2839 27.0186 36.9597C27.0186 38.6356 25.678 40 24.0315 40ZM24.0315 35.7418C23.3747 35.7418 22.8349 36.2912 22.8349 36.9597C22.8349 37.6282 23.3747 38.1777 24.0315 38.1777C24.6883 38.1777 25.2281 37.6282 25.2281 36.9597C25.2281 36.2912 24.6973 35.7418 24.0315 35.7418Z" fill="#4288BD"/>
<path d="M36.7714 37.8755H26.1277C25.6329 37.8755 25.228 37.4635 25.228 36.9598C25.228 36.4561 25.6329 36.044 26.1277 36.044H36.7714C37.0413 36.044 37.2573 35.8243 37.2573 35.5495C37.2573 35.0459 37.6621 34.6338 38.157 34.6338C38.6518 34.6338 39.0567 35.0459 39.0567 35.5495C39.0477 36.8316 38.022 37.8755 36.7714 37.8755Z" fill="#4288BD"/>
</svg>
