<svg width="46" height="46" viewBox="0 0 46 46" fill="none" xmlns="http://www.w3.org/2000/svg">
<g clip-path="url(#clip0_58_500)">
<path d="M33.3546 13.5136C33.1376 13.5136 32.9119 13.4268 32.747 13.2619C32.4085 12.9234 32.4085 12.3766 32.747 12.0381L38.0501 6.73507C38.3885 6.39658 38.9353 6.39658 39.2738 6.73507C39.6123 7.07356 39.6123 7.62035 39.2738 7.95884L33.9708 13.2619C33.7972 13.4268 33.5716 13.5136 33.3546 13.5136Z" fill="white"/>
<path d="M45.1322 23.8591H36.9216C36.4443 23.8591 36.0537 23.4686 36.0537 22.9912C36.0537 22.5139 36.4443 22.1233 36.9216 22.1233H45.1322C45.6096 22.1233 46.0001 22.5139 46.0001 22.9912C46.0001 23.4773 45.6096 23.8591 45.1322 23.8591Z" fill="white"/>
<path d="M38.6488 39.5165C38.4318 39.5165 38.2062 39.4297 38.0413 39.2648L32.7382 33.9618C32.3998 33.6233 32.3998 33.0765 32.7382 32.738C33.0767 32.3995 33.6235 32.3995 33.962 32.738L39.265 38.041C39.6035 38.3795 39.6035 38.9263 39.265 39.2648C39.0915 39.4297 38.8745 39.5165 38.6488 39.5165Z" fill="white"/>
<path d="M22.9998 45.9999C22.5224 45.9999 22.1318 45.6093 22.1318 45.132V36.9214C22.1318 36.444 22.5224 36.0535 22.9998 36.0535C23.4771 36.0535 23.8677 36.444 23.8677 36.9214V45.132C23.859 45.6093 23.4771 45.9999 22.9998 45.9999Z" fill="white"/>
<path d="M7.35116 39.5165C7.13418 39.5165 6.90852 39.4297 6.74361 39.2648C6.40512 38.9263 6.40512 38.3795 6.74361 38.041L12.0466 32.738C12.3851 32.3995 12.9319 32.3995 13.2704 32.738C13.6089 33.0765 13.6089 33.6233 13.2704 33.9618L7.96739 39.2648C7.78512 39.4297 7.56814 39.5165 7.35116 39.5165Z" fill="white"/>
<path d="M23.0001 34.9773C16.5601 34.9773 11.3179 29.7351 11.3179 23.2951C11.3179 16.8551 16.5601 11.6128 23.0001 11.6128C29.4401 11.6128 34.6824 16.8551 34.6824 23.2951C34.6824 29.7351 29.4401 34.9773 23.0001 34.9773ZM23.0001 13.3486C17.5149 13.3486 13.045 17.8098 13.045 23.3037C13.045 28.789 17.5062 33.2588 23.0001 33.2588C28.4854 33.2588 32.9552 28.7977 32.9552 23.3037C32.9466 17.8098 28.4854 13.3486 23.0001 13.3486Z" fill="white"/>
<path d="M22.9998 9.93774C22.5224 9.93774 22.1318 9.54717 22.1318 9.06981V0.867925C22.1318 0.390566 22.5224 0 22.9998 0C23.4771 0 23.8677 0.390566 23.8677 0.867925V9.07849C23.859 9.55585 23.4771 9.93774 22.9998 9.93774Z" fill="white"/>
<path d="M23 23.8071C20.7173 23.8071 18.8687 21.9497 18.8687 19.6758C18.8687 17.3931 20.726 15.5444 23 15.5444C25.2826 15.5444 27.1313 17.4018 27.1313 19.6758C27.1313 21.9584 25.2739 23.8071 23 23.8071ZM23 17.2716C21.672 17.2716 20.5958 18.3478 20.5958 19.6758C20.5958 21.0037 21.672 22.0799 23 22.0799C24.3279 22.0799 25.4041 21.0037 25.4041 19.6758C25.4041 18.3478 24.3279 17.2716 23 17.2716Z" fill="white"/>
<path d="M30.308 32.1392C29.8306 32.1392 29.4401 31.7486 29.4401 31.2713V29.683C29.4401 26.7581 27.4352 24.189 24.6318 23.4513C23.5816 23.92 22.4186 23.92 21.3684 23.4513C18.565 24.189 16.5601 26.7581 16.5601 29.683V31.2713C16.5601 31.7486 16.1695 32.1392 15.6921 32.1392C15.2148 32.1392 14.8242 31.7486 14.8242 31.2713V29.683C14.8242 25.8554 17.5408 22.4966 21.2816 21.6981C21.4812 21.6547 21.6895 21.6807 21.8718 21.7849C22.6008 22.1754 23.3906 22.1754 24.1197 21.7849C24.302 21.6894 24.5103 21.6547 24.7099 21.6981C28.4506 22.4966 31.1672 25.8554 31.1672 29.683V31.2713C31.1672 31.7573 30.7853 32.1392 30.308 32.1392Z" fill="white"/>
<path d="M19.3718 34.3611C18.8945 34.3611 18.5039 33.9706 18.5039 33.4932V29.1536C18.5039 28.6762 18.8945 28.2856 19.3718 28.2856C19.8492 28.2856 20.2398 28.6762 20.2398 29.1536V33.4932C20.2398 33.9706 19.8492 34.3611 19.3718 34.3611Z" fill="white"/>
<path d="M26.6277 34.3611C26.1503 34.3611 25.7598 33.9706 25.7598 33.4932V29.1536C25.7598 28.6762 26.1503 28.2856 26.6277 28.2856C27.105 28.2856 27.4956 28.6762 27.4956 29.1536V33.4932C27.4869 33.9706 27.105 34.3611 26.6277 34.3611Z" fill="white"/>
<path d="M25.3085 3.08119C25.161 3.08119 25.0135 3.04647 24.8746 2.95968L22.9999 1.86609L21.1252 2.96836C20.7172 3.21138 20.1878 3.07251 19.9448 2.6559C19.7018 2.24798 19.8406 1.71855 20.2572 1.47553L22.5659 0.121564C22.835 -0.0346621 23.1648 -0.0346621 23.4425 0.121564L25.7599 1.47553C26.1678 1.71855 26.3067 2.24798 26.0723 2.6559C25.8987 2.92496 25.6123 3.08119 25.3085 3.08119Z" fill="white"/>
<path d="M39.3258 10.8056C38.944 10.8056 38.5881 10.5452 38.4926 10.1633L37.9458 8.06294L35.8455 7.51615C35.3855 7.39464 35.1077 6.92596 35.2292 6.45728C35.3507 5.99728 35.8194 5.71954 36.2881 5.84105L38.8832 6.51803C39.187 6.59615 39.4213 6.83049 39.4994 7.13426L40.1764 9.72935C40.2979 10.1894 40.0202 10.6667 39.5602 10.7882C39.4734 10.7969 39.404 10.8056 39.3258 10.8056Z" fill="white"/>
<path d="M43.7781 26.1767C43.6306 26.1767 43.483 26.142 43.3441 26.0552C42.9362 25.8122 42.7974 25.2828 43.0317 24.8748L44.134 23.0001L43.0317 21.1254C42.7887 20.7175 42.9275 20.188 43.3441 19.945C43.7521 19.702 44.2815 19.8409 44.5245 20.2575L45.8785 22.5662C46.0347 22.8352 46.0347 23.1737 45.8785 23.4428L44.5245 25.7601C44.3683 26.0205 44.0732 26.1767 43.7781 26.1767Z" fill="white"/>
<path d="M36.0537 40.1935C35.6718 40.1935 35.3159 39.9331 35.2204 39.5513C35.0989 39.0913 35.3767 38.6139 35.8367 38.4924L37.937 37.9456L38.4838 35.8452C38.6054 35.3852 39.074 35.1075 39.5427 35.229C40.0027 35.3505 40.2804 35.8192 40.1589 36.2879L39.482 38.883C39.4038 39.1867 39.1695 39.4211 38.8657 39.4992L36.2706 40.1762C36.2012 40.1848 36.1318 40.1935 36.0537 40.1935Z" fill="white"/>
<path d="M22.9999 46C22.8523 46 22.6961 45.9566 22.5659 45.8785L20.2485 44.5245C19.8406 44.2815 19.7017 43.7521 19.9361 43.3441C20.1791 42.9362 20.7085 42.7974 21.1165 43.0317L22.9912 44.134L24.8659 43.0317C25.2738 42.7887 25.8032 42.9275 26.0463 43.3441C26.2893 43.7521 26.1504 44.2815 25.7338 44.5245L23.4338 45.8785C23.3036 45.9566 23.1474 46 22.9999 46Z" fill="white"/>
<path d="M9.93755 40.1937C9.86811 40.1937 9.79 40.185 9.72057 40.1676L7.12547 39.4906C6.8217 39.4125 6.58736 39.1782 6.50924 38.8744L5.83226 36.2793C5.71075 35.8193 5.98849 35.342 6.44849 35.2204C6.90849 35.0989 7.38585 35.3767 7.50736 35.8367L8.05415 37.937L10.1545 38.4838C10.6145 38.6054 10.8923 39.074 10.7708 39.5427C10.6753 39.9333 10.3281 40.1937 9.93755 40.1937Z" fill="white"/>
<path d="M9.07849 23.8591H0.867925C0.390566 23.8591 0 23.4686 0 22.9912C0 22.5139 0.390566 22.1233 0.867925 22.1233H9.07849C9.55585 22.1233 9.94641 22.5139 9.94641 22.9912C9.93774 23.4773 9.55585 23.8591 9.07849 23.8591Z" fill="white"/>
<path d="M2.22194 26.1766C1.92685 26.1766 1.63175 26.0204 1.47553 25.7513L0.121564 23.4339C-0.0346621 23.1649 -0.0346621 22.8264 0.121564 22.5573L1.47553 20.24C1.71855 19.8321 2.24798 19.6932 2.6559 19.9275C3.06383 20.1706 3.2027 20.7 2.96836 21.1079L1.86609 23L2.96836 24.8747C3.21138 25.2826 3.07251 25.8121 2.6559 26.0551C2.51704 26.1419 2.36949 26.1766 2.22194 26.1766Z" fill="white"/>
<path d="M12.6459 13.5136C12.4289 13.5136 12.2032 13.4268 12.0383 13.2619L6.73531 7.95884C6.39682 7.62035 6.39682 7.07356 6.73531 6.73507C7.0738 6.39658 7.6206 6.39658 7.95909 6.73507L13.2621 12.0381C13.6006 12.3766 13.6006 12.9234 13.2621 13.2619C13.0885 13.4268 12.8715 13.5136 12.6459 13.5136Z" fill="white"/>
<path d="M6.66547 10.8057C6.59604 10.8057 6.51792 10.797 6.44849 10.7797C5.98849 10.6582 5.71075 10.1895 5.83226 9.72081L6.50924 7.12572C6.58736 6.83062 6.83038 6.5876 7.12547 6.50949L9.72057 5.83251C10.1806 5.711 10.6579 5.98873 10.7794 6.44873C10.9009 6.90873 10.6232 7.38609 10.1632 7.5076L8.05415 8.05439L7.50736 10.1548C7.40321 10.5453 7.05604 10.8057 6.66547 10.8057Z" fill="white"/>
</g>
<defs>
<clipPath id="clip0_58_500">
<rect width="46" height="46" fill="white"/>
</clipPath>
</defs>
</svg>
