<svg width="35" height="42" viewBox="0 0 35 42" fill="none" xmlns="http://www.w3.org/2000/svg">
<g clip-path="url(#clip0_58_523)">
<path d="M20.7712 42.0001H4.04307C3.69184 42.0001 3.38146 41.7707 3.26711 41.4431C3.15276 41.1073 3.26711 40.747 3.55299 40.534C3.56116 40.5258 4.88438 39.4856 5.21927 37.6019C6.01156 33.0317 5.08041 28.0765 2.59733 23.6619C1.12708 21.0492 0.432802 18.0761 0.596162 15.0539C0.628834 14.4724 0.68601 13.7189 0.849371 12.9736C1.69885 9.13229 3.46314 6.03635 6.07691 3.77582C9.94855 0.434165 15.2578 -0.786194 20.2729 0.507878C25.3126 1.81014 29.2251 5.30741 31.0139 10.1069C31.7164 11.9825 32.0676 13.9482 32.0676 15.9303C32.0676 16.9786 32.3208 17.9942 32.7945 18.9034L34.714 22.5562C35.0897 23.1541 35.1143 23.8995 34.7794 24.5219C34.4363 25.1526 33.7829 25.5539 33.0641 25.5539H31.0139V30.378C31.0139 33.0726 28.833 35.2594 26.1458 35.2594H21.5962V41.181C21.5798 41.6315 21.2204 42.0001 20.7712 42.0001ZM5.83187 40.3702H19.9544V34.4486C19.9544 33.9981 20.322 33.6296 20.7712 33.6296H26.1376C27.9264 33.6296 29.3803 32.1717 29.3803 30.378V24.7349C29.3803 24.2844 29.7479 23.9158 30.1971 23.9158H33.0641C33.2356 23.9158 33.3173 23.8094 33.35 23.7438C33.3826 23.6783 33.4316 23.5473 33.3336 23.408C33.3173 23.3835 33.3091 23.3589 33.2928 23.3425L31.3488 19.6569C30.7525 18.5184 30.434 17.2407 30.434 15.9548C30.434 14.1366 30.1154 12.3757 29.4865 10.6803C27.8855 6.38034 24.3815 3.25164 19.8645 2.08861C15.364 0.925584 10.602 2.0149 7.13875 5.01256C4.79453 7.03557 3.20993 9.82847 2.43397 13.3257C2.29511 13.9482 2.2461 14.5952 2.21343 15.1358C2.06641 17.8468 2.68718 20.5168 4.00223 22.8593C6.67317 27.6015 7.66967 32.9334 6.81203 37.8803C6.6405 38.9041 6.24027 39.7314 5.83187 40.3702Z" fill="#4288BD"/>
<path d="M23.426 35.2594H16.6547C16.2055 35.2594 15.8379 34.8908 15.8379 34.4404C15.8379 33.9899 16.2055 33.6213 16.6547 33.6213H23.426C23.8752 33.6213 24.2428 33.9899 24.2428 34.4404C24.2428 34.8908 23.8752 35.2594 23.426 35.2594Z" fill="#4288BD"/>
<path d="M30.2789 42.0001H0.816803C0.367561 42.0001 0 41.6316 0 41.1811C0 40.7306 0.367561 40.3621 0.816803 40.3621H30.2789C30.7281 40.3621 31.0957 40.7306 31.0957 41.1811C31.0875 41.6316 30.7281 42.0001 30.2789 42.0001Z" fill="#4288BD"/>
<path d="M11.7212 19.706C10.3653 19.706 9.13192 19.0426 8.38863 17.9615C8.02924 18.0925 7.65351 18.158 7.26961 18.158C5.44814 18.158 3.96973 16.6756 3.96973 14.8491C3.96973 13.424 4.86821 12.2119 6.13425 11.745C6.01173 11.3928 5.94639 11.0243 5.94639 10.6393C5.94639 9.01763 7.11442 7.67441 8.64184 7.38775C9.2381 5.43026 11.0351 4.07886 13.1261 4.07886C14.3186 4.07886 15.454 4.53752 16.3198 5.33198C17.0141 4.69313 17.9207 4.32457 18.8927 4.32457C20.5345 4.32457 21.9557 5.38112 22.4785 6.88814C24.2101 6.88814 25.6313 8.18221 25.7947 9.86942C27.3793 10.1151 28.5882 11.4829 28.5882 13.1374C28.5882 14.9638 27.1098 16.4463 25.2883 16.4463C24.9616 16.4463 24.6348 16.3971 24.3245 16.2988C23.7854 17.4127 22.6582 18.1662 21.3676 18.1662C20.6815 18.1662 20.0362 17.9533 19.489 17.5765C18.8845 18.4037 17.8962 18.9361 16.8262 18.9361C16.0911 18.9361 15.3968 18.6904 14.825 18.2563C14.0736 19.1573 12.9382 19.706 11.7212 19.706ZM8.70718 16.0531C8.78069 16.0531 8.85421 16.0613 8.92772 16.0859C9.16459 16.1514 9.36063 16.3316 9.45864 16.5609C9.83437 17.4782 10.7247 18.0761 11.713 18.0761C12.6932 18.0761 13.5672 17.4946 13.9592 16.5937C14.0817 16.3152 14.3431 16.1268 14.6535 16.1023C14.9557 16.0777 15.2498 16.2333 15.405 16.4954C15.7154 17.0032 16.2463 17.3062 16.8262 17.3062C17.6103 17.3062 18.2964 16.7493 18.4598 15.9876C18.5333 15.66 18.7865 15.4143 19.1133 15.3569C19.44 15.2996 19.7667 15.447 19.9464 15.7337C20.2568 16.2333 20.7877 16.5363 21.3676 16.5363C22.2089 16.5363 22.9196 15.8975 23.0176 15.0539C23.0502 14.7672 23.2381 14.5133 23.4995 14.3987C23.769 14.284 24.0712 14.3168 24.3081 14.4888C24.6022 14.7017 24.9452 14.8164 25.2883 14.8164C26.2113 14.8164 26.9627 14.0629 26.9627 13.1374C26.9627 12.2119 26.2113 11.4583 25.2883 11.4583C25.2229 11.4583 25.1576 11.4665 25.0922 11.4829C24.8309 11.5239 24.5532 11.4338 24.3653 11.2372C24.1856 11.0488 24.0876 10.7785 24.1366 10.5165C24.1611 10.4018 24.1693 10.2953 24.1693 10.1888C24.1693 9.26333 23.4178 8.50983 22.4948 8.50983C22.3641 8.50983 22.2253 8.5344 22.0537 8.58354C21.825 8.64906 21.58 8.60811 21.384 8.47706C21.1879 8.34602 21.0572 8.13307 21.0327 7.89555C20.9021 6.78986 19.9709 5.95444 18.8764 5.95444C18.1168 5.95444 17.4225 6.34758 17.0141 7.011C16.867 7.24851 16.6138 7.39594 16.3443 7.40413C16.0666 7.4287 15.8052 7.28128 15.65 7.05195C15.0782 6.20834 14.1308 5.70873 13.1179 5.70873C11.6068 5.70873 10.3326 6.78986 10.0876 8.28869C10.0222 8.69001 9.67101 9.00943 9.26261 8.96848C9.24627 8.96848 9.22177 8.96848 9.19727 8.96029C8.29061 8.97667 7.56366 9.72199 7.56366 10.6393C7.56366 11.0734 7.73519 11.4911 8.03741 11.8105C8.27428 12.0562 8.33145 12.4166 8.1926 12.7197C8.05374 13.0309 7.72702 13.2111 7.4003 13.1865C7.35129 13.1865 7.31045 13.1865 7.26961 13.1783C6.33845 13.1783 5.59516 13.9318 5.59516 14.8491C5.59516 15.7746 6.34662 16.5282 7.26961 16.5282C7.61267 16.5282 7.95572 16.4135 8.24161 16.2087C8.37229 16.1023 8.54382 16.0531 8.70718 16.0531Z" fill="#4288BD"/>
<path d="M8.7154 17.6831C8.6909 17.6831 8.66639 17.6831 8.64189 17.6831C8.19265 17.6421 7.86593 17.249 7.90677 16.7985C7.93127 16.5118 8.1028 15.054 8.99311 14.3496C9.34434 14.0711 9.85893 14.1366 10.1366 14.4888C10.4144 14.841 10.349 15.357 9.99778 15.6355C9.75274 15.832 9.56488 16.52 9.52404 16.9459C9.4832 17.3636 9.1238 17.6831 8.7154 17.6831Z" fill="#4288BD"/>
<path d="M15.9768 9.5335C15.6419 9.5335 15.3234 9.32055 15.209 8.98474C14.7026 7.51868 15.6174 6.17546 15.6582 6.11813C15.9196 5.74956 16.426 5.65947 16.7936 5.92156C17.1612 6.17546 17.251 6.68326 16.9978 7.05183C16.9815 7.0764 16.5159 7.78896 16.7528 8.45237C16.8998 8.87827 16.6792 9.34512 16.2545 9.49254C16.1565 9.51712 16.0666 9.5335 15.9768 9.5335Z" fill="#4288BD"/>
<path d="M19.2523 16.9622C18.7785 16.9458 18.4273 16.5773 18.4355 16.1268C18.4355 16.1022 18.4355 15.1522 17.8392 14.759C17.4635 14.5133 17.3654 14.0055 17.6105 13.6288C17.8555 13.252 18.3619 13.1537 18.7377 13.3994C20.0936 14.3004 20.0609 16.0859 20.0527 16.1678C20.0527 16.6182 19.6933 16.9622 19.2523 16.9622Z" fill="#4288BD"/>
<path d="M12.7992 12.8179C12.497 12.8179 12.1539 12.7688 11.8272 12.605C11.3453 12.3675 10.9941 11.958 10.8062 11.401C10.6674 10.9751 10.8961 10.5083 11.3208 10.369C11.7455 10.2216 12.2111 10.4591 12.35 10.885C12.4153 11.0816 12.497 11.1225 12.5297 11.1389C12.7257 11.2372 13.0688 11.1717 13.1994 11.1225C13.6242 10.9751 14.0816 11.2044 14.2368 11.6222C14.3838 12.0481 14.1714 12.5067 13.7549 12.6541C13.6814 12.6787 13.2893 12.8179 12.7992 12.8179Z" fill="#4288BD"/>
<path d="M20.8121 12.4822C20.4282 12.4822 20.0851 12.2037 20.0116 11.8106C19.979 11.6058 19.8973 11.5567 19.8646 11.5321C19.6849 11.4093 19.3418 11.4256 19.1948 11.4502C18.7538 11.5321 18.329 11.2455 18.2473 10.8114C18.1575 10.3691 18.4352 9.94319 18.8763 9.85309C18.9906 9.82852 19.979 9.64015 20.7713 10.1807C21.2123 10.4838 21.5064 10.9424 21.6044 11.5157C21.6861 11.958 21.392 12.3839 20.951 12.4658C20.9019 12.474 20.8611 12.4822 20.8121 12.4822Z" fill="#4288BD"/>
</g>
<defs>
<clipPath id="clip0_58_523">
<rect width="35" height="42" fill="white"/>
</clipPath>
</defs>
</svg>
