<svg width="42" height="44" viewBox="0 0 42 44" fill="none" xmlns="http://www.w3.org/2000/svg">
<path d="M21.0421 43.9999C18.3059 43.9999 16.0732 41.7537 16.0732 38.982C16.0732 36.2188 18.2975 33.9641 21.0421 33.9641C23.7783 33.9641 26.0109 36.2103 26.0109 38.982C26.0025 41.7453 23.7783 43.9999 21.0421 43.9999ZM21.0421 35.6509C19.2291 35.6509 17.7435 37.1427 17.7435 38.982C17.7435 40.8129 19.2207 42.3132 21.0421 42.3132C22.855 42.3132 24.3406 40.8214 24.3406 38.982C24.3322 37.1427 22.855 35.6509 21.0421 35.6509Z" fill="var(--main-color)"/>
<path d="M26.1954 40.5331H25.1126C24.8692 40.5331 24.6342 40.4229 24.4748 40.2364C24.3153 40.05 24.2481 39.7957 24.2901 39.5499C24.3237 39.3464 24.3405 39.16 24.3405 38.982C24.3405 37.9818 23.8956 37.0409 23.1234 36.4052C22.8465 36.1763 22.7457 35.8034 22.8632 35.4643C22.9808 35.1253 23.2997 34.9049 23.6522 34.9049H24.5755C24.9951 34.9049 25.3896 34.6676 25.5911 34.2946C26.145 33.2605 26.1114 31.9891 25.5239 30.9804L24.5167 29.2598C24.0887 28.5393 24.139 27.6408 24.6342 26.9712C25.0035 26.4711 25.5743 26.1659 26.1954 26.149C26.8165 26.132 27.404 26.3863 27.8069 26.861L30.1234 29.5819C31.2901 30.9465 31.6762 32.7943 31.1642 34.515L30.3081 37.4308C29.7625 39.2617 28.0755 40.5331 26.1954 40.5331ZM26.0023 38.8464H26.187C27.3369 38.8464 28.3692 38.0665 28.6966 36.9562L29.5527 34.0403C29.8968 32.8706 29.6366 31.6161 28.8477 30.6922L26.5395 27.9714C26.4388 27.8527 26.3129 27.8442 26.2457 27.8442C26.1786 27.8442 26.0527 27.8697 25.9604 27.9968C25.868 28.1155 25.8597 28.2765 25.9352 28.4121L26.9424 30.1328C27.8321 31.65 27.874 33.5572 27.0515 35.1083C26.6822 35.7949 26.0611 36.2865 25.3477 36.4984C25.7505 37.1935 25.9855 38.0072 26.0023 38.8464Z" fill="var(--main-color)"/>
<path d="M16.9711 40.5332H15.8883C14.0083 40.5332 12.3128 39.2618 11.7756 37.4394L10.9111 34.5236C10.3991 32.7944 10.7936 30.9551 11.9519 29.5904L14.2684 26.8695C14.6713 26.3949 15.2589 26.1406 15.88 26.1575C16.5011 26.1745 17.0718 26.4796 17.4411 26.9797C17.9363 27.6493 17.9867 28.5478 17.5586 29.2683L16.1569 31.6416C15.8044 32.2435 15.7876 32.9978 16.115 33.6166C16.5346 34.4134 17.3572 34.905 18.2469 34.905H18.4063C18.7589 34.905 19.0778 35.1254 19.1953 35.4644C19.3128 35.8035 19.2121 36.1764 18.9351 36.4053C18.1629 37.041 17.7265 37.9818 17.7265 38.982C17.7265 39.16 17.7433 39.3465 17.7768 39.5499C17.8188 39.7958 17.7517 40.05 17.5922 40.2365C17.4495 40.423 17.2229 40.5332 16.9711 40.5332ZM12.5142 34.0404L13.3704 36.9562C13.6977 38.0666 14.7301 38.8464 15.88 38.8464H16.0646C16.0898 37.9395 16.35 37.0749 16.8116 36.329C15.9051 35.9815 15.133 35.3118 14.6545 34.4218C14.0502 33.286 14.0754 31.8875 14.7301 30.7855L16.1318 28.4122C16.2073 28.2851 16.1989 28.1155 16.1066 27.9969C16.0142 27.8697 15.8883 27.8528 15.8212 27.8443C15.7624 27.8443 15.6282 27.8528 15.5274 27.9714L13.2109 30.6923C12.4387 31.6162 12.1701 32.8707 12.5142 34.0404Z" fill="var(--main-color)"/>
<path d="M12.4891 38.0412H1.5275C1.01551 38.0412 0.621028 37.8886 0.344049 37.5835C-0.0840081 37.1088 -0.0252551 36.49 0.0334979 35.9391C0.0502844 35.7526 0.0754643 35.5407 0.0754643 35.3203V8.67113C0.0754643 7.17084 1.2841 5.95874 2.76132 5.95874H12.4807C12.9424 5.95874 13.3201 6.34017 13.3201 6.80636C13.3201 7.27255 12.9424 7.65398 12.4807 7.65398H2.76971C2.20736 7.65398 1.75412 8.1117 1.75412 8.6796V35.3373C1.75412 35.6255 1.72894 35.8882 1.70376 36.1256C1.69537 36.1849 1.68698 36.2781 1.67858 36.3544H12.4891C12.9508 36.3544 13.3285 36.7359 13.3285 37.202C13.3201 37.6682 12.9508 38.0412 12.4891 38.0412Z" fill="var(--main-color)"/>
<path d="M39.3142 38.0411H29.5864C29.1248 38.0411 28.7471 37.6597 28.7471 37.1935C28.7471 36.7273 29.1248 36.3459 29.5864 36.3459H39.3058C39.8682 36.3459 40.3214 35.8882 40.3214 35.3203V8.67106C40.3214 8.10315 39.8682 7.64544 39.3058 7.64544H29.5864C29.1248 7.64544 28.7471 7.26401 28.7471 6.79782C28.7471 6.33163 29.1248 5.9502 29.5864 5.9502H39.3058C40.7914 5.9502 41.9917 7.17077 41.9917 8.66258V35.3203C42.0001 36.829 40.7914 38.0411 39.3142 38.0411Z" fill="var(--main-color)"/>
<path d="M21.0421 10.0274C18.3059 10.0274 16.0732 7.78116 16.0732 5.00944C16.0732 2.2462 18.2975 0 21.0421 0C23.7783 0 26.0109 2.2462 26.0109 5.01792C26.0025 7.78116 23.7783 10.0274 21.0421 10.0274ZM21.0421 1.68677C19.2291 1.68677 17.7435 3.17858 17.7435 5.01792C17.7435 6.84878 19.2207 8.34907 21.0421 8.34907C22.855 8.34907 24.3406 6.85725 24.3406 5.01792C24.3322 3.17858 22.855 1.68677 21.0421 1.68677Z" fill="var(--main-color)"/>
<path d="M15.8211 17.8424C15.2252 17.8424 14.6629 17.5797 14.2768 17.122L11.9602 14.4096C10.7936 13.0449 10.4075 11.1971 10.9195 9.47643L11.7756 6.56061C12.3128 4.73823 14.0082 3.4668 15.8883 3.4668H16.971C17.2144 3.4668 17.4494 3.57699 17.6089 3.76346C17.7684 3.94994 17.8355 4.20423 17.7936 4.45004C17.76 4.65347 17.7432 4.83994 17.7432 5.01794C17.7432 6.01814 18.1881 6.95899 18.9518 7.59471C19.2288 7.82357 19.3295 8.19652 19.212 8.53557C19.0945 8.87462 18.7756 9.095 18.4231 9.095H17.4998C17.0801 9.095 16.6857 9.33233 16.4842 9.70529C15.9303 10.7394 15.9638 12.0108 16.5514 13.0195L17.5586 14.7402C17.9782 15.4606 17.9363 16.3591 17.441 17.0287C17.0717 17.5288 16.501 17.834 15.8799 17.8509C15.8631 17.8424 15.8463 17.8424 15.8211 17.8424ZM15.8883 5.14509C14.7384 5.14509 13.706 5.9249 13.3787 7.03528L12.5226 9.9511C12.1785 11.1208 12.4387 12.3753 13.236 13.2992L15.5526 16.0201C15.6533 16.1387 15.7792 16.1557 15.8463 16.1472C15.9135 16.1472 16.0394 16.1218 16.1317 15.9946C16.224 15.876 16.2324 15.7064 16.1569 15.5793L15.1497 13.8586C14.26 12.3414 14.218 10.4427 15.0406 8.88309C15.4099 8.19652 16.031 7.7049 16.7444 7.493C16.3415 6.78099 16.1065 5.96728 16.0897 5.12813H15.8883V5.14509Z" fill="var(--main-color)"/>
<path d="M26.2541 17.8424C26.229 17.8424 26.2038 17.8424 26.187 17.8424C25.5659 17.8255 24.9951 17.5204 24.6258 17.0203C24.1306 16.3506 24.0803 15.4522 24.4999 14.7317L25.9016 12.3583C26.2541 11.7565 26.2709 11.0021 25.9436 10.3834C25.5239 9.58662 24.7014 9.095 23.8117 9.095H23.6522C23.2997 9.095 22.9808 8.87462 22.8632 8.53557C22.7457 8.19652 22.8465 7.82357 23.1234 7.59471C23.8956 6.95899 24.3405 6.01814 24.3405 5.01794C24.3405 4.83994 24.3237 4.65347 24.2901 4.45004C24.2481 4.20423 24.3153 3.94994 24.4748 3.76346C24.6342 3.57699 24.8692 3.4668 25.1126 3.4668H26.1954C28.0755 3.4668 29.7709 4.73823 30.3081 6.56061L31.1642 9.47643C31.6762 11.2056 31.2817 13.0449 30.1234 14.4096L27.8069 17.1304C27.4124 17.5797 26.8501 17.8424 26.2541 17.8424ZM25.2553 7.671C26.1618 8.01852 26.9424 8.68814 27.4124 9.57814C28.0167 10.714 27.9915 12.1125 27.3369 13.2144L25.9352 15.5878C25.8597 15.7149 25.868 15.8844 25.9604 16.0031C26.0527 16.1303 26.1786 16.1472 26.2457 16.1557C26.3045 16.1642 26.4388 16.1472 26.5395 16.0285L28.8561 13.3077C29.645 12.3838 29.9136 11.1293 29.5611 9.95957L28.705 7.03528C28.3776 5.9249 27.3453 5.14509 26.1954 5.14509H26.0107C25.9772 6.05204 25.717 6.91661 25.2553 7.671Z" fill="var(--main-color)"/>
<path d="M25.3894 21.4534H16.5932C16.1316 21.4534 15.7539 21.072 15.7539 20.6058V16.7152C15.7539 16.4694 15.863 16.232 16.0561 16.071C16.0812 16.054 16.098 16.0286 16.1148 16.0117C16.2071 15.893 16.2155 15.7235 16.14 15.5963L15.905 15.1979C15.7539 14.9352 15.7455 14.6131 15.8966 14.3503C16.0477 14.0876 16.3246 13.9265 16.6268 13.9265H25.3978C25.8594 13.9265 26.2371 14.3079 26.2371 14.7741V14.8758C26.2371 15.0284 26.1952 15.181 26.1196 15.3081L25.9434 15.6048C25.8678 15.7235 25.8762 15.876 25.9517 15.9947L26.0021 16.0456C26.1532 16.2066 26.2371 16.41 26.2371 16.6304V20.6227C26.2287 21.0804 25.851 21.4534 25.3894 21.4534ZM17.4326 19.7666H24.5585V16.9271C24.2983 16.5287 24.1808 16.071 24.2227 15.6133H17.8606C17.9026 16.1049 17.7683 16.605 17.4577 17.0203C17.4326 17.0542 17.4326 19.7666 17.4326 19.7666Z" fill="var(--main-color)"/>
<path d="M5.7407 31.9214C5.27907 31.9214 4.90137 31.5399 4.90137 31.0737V12.9177C4.90137 12.4515 5.27907 12.0701 5.7407 12.0701C6.20233 12.0701 6.58002 12.4515 6.58002 12.9177V31.0822C6.58002 31.5484 6.20233 31.9214 5.7407 31.9214Z" fill="var(--main-color)"/>
<path d="M10.8022 27.1494C10.3406 27.1494 9.96289 26.7679 9.96289 26.3017V17.6899C9.96289 17.2237 10.3406 16.8423 10.8022 16.8423C11.2638 16.8423 11.6415 17.2237 11.6415 17.6899V26.3102C11.6415 26.7764 11.2638 27.1494 10.8022 27.1494Z" fill="var(--main-color)"/>
<path d="M36.2505 31.9214C35.7888 31.9214 35.4111 31.5399 35.4111 31.0737V12.9177C35.4111 12.4515 35.7888 12.0701 36.2505 12.0701C36.7121 12.0701 37.0898 12.4515 37.0898 12.9177V31.0822C37.0898 31.5484 36.7121 31.9214 36.2505 31.9214Z" fill="var(--main-color)"/>
<path d="M31.1977 27.1494C30.7361 27.1494 30.3584 26.7679 30.3584 26.3017V17.6899C30.3584 17.2237 30.7361 16.8423 31.1977 16.8423C31.6594 16.8423 32.0371 17.2237 32.0371 17.6899V26.3102C32.0287 26.7764 31.6594 27.1494 31.1977 27.1494Z" fill="var(--main-color)"/>
</svg>
