<svg width="36" height="40" viewBox="0 0 36 40" fill="none" xmlns="http://www.w3.org/2000/svg">
<path d="M19.6135 13.809C17.4392 13.809 15.6665 12.0699 15.6665 9.93686C15.6665 7.80383 17.4392 6.0647 19.6135 6.0647C21.7877 6.0647 23.5604 7.80383 23.5604 9.93686C23.5604 12.0699 21.7877 13.809 19.6135 13.809ZM19.6135 7.53627C18.265 7.53627 17.1741 8.61394 17.1741 9.92943C17.1741 11.2524 18.2726 12.3226 19.6135 12.3226C20.962 12.3226 22.0529 11.2449 22.0529 9.92943C22.0529 8.61394 20.962 7.53627 19.6135 7.53627Z" fill="var(--main-color)"/>
<path d="M20.8562 18.7884H13.0911C12.6744 18.7884 12.3335 18.454 12.3335 18.0452V15.8156C12.3335 13.2366 14.4774 11.1333 17.1062 11.1333C17.3335 11.1333 17.5532 11.2374 17.6971 11.4157C18.1668 11.9954 18.8638 12.3225 19.6062 12.3225C20.3562 12.3225 21.0532 11.988 21.5153 11.4157C21.6593 11.2374 21.879 11.1333 22.1062 11.1333C23.5835 11.1333 24.9471 11.7873 25.8638 12.9245C26.1214 13.244 26.0608 13.7123 25.735 13.965C25.4093 14.2177 24.932 14.1582 24.6744 13.8386C24.1214 13.1474 23.3183 12.7164 22.432 12.6272C21.6896 13.3778 20.682 13.8015 19.6062 13.8015C18.5305 13.8015 17.5229 13.3778 16.7805 12.6272C15.1365 12.7907 13.8411 14.1582 13.8411 15.8156V17.3094H20.8486C21.2653 17.3094 21.6062 17.6439 21.6062 18.0527C21.6062 18.4614 21.2729 18.7884 20.8562 18.7884Z" fill="var(--main-color)"/>
<path d="M9.41673 18.848H4.69703C4.28036 18.848 3.93945 18.5136 3.93945 18.1048C3.93945 17.696 4.28036 17.3616 4.69703 17.3616H9.41673C9.83339 17.3616 10.1743 17.696 10.1743 18.1048C10.1743 18.5136 9.83339 18.848 9.41673 18.848Z" fill="var(--main-color)"/>
<path d="M9.41673 14.5746H4.69703C4.28036 14.5746 3.93945 14.2401 3.93945 13.8314C3.93945 13.4226 4.28036 13.0881 4.69703 13.0881H9.41673C9.83339 13.0881 10.1743 13.4226 10.1743 13.8314C10.1743 14.2476 9.83339 14.5746 9.41673 14.5746Z" fill="var(--main-color)"/>
<path d="M19.0304 22.6756H4.69703C4.28036 22.6756 3.93945 22.3412 3.93945 21.9324C3.93945 21.5237 4.28036 21.1892 4.69703 21.1892H19.0304C19.447 21.1892 19.7879 21.5237 19.7879 21.9324C19.7879 22.3412 19.447 22.6756 19.0304 22.6756Z" fill="var(--main-color)"/>
<path d="M21.5153 26.0943H4.82594C4.40927 26.0943 4.06836 25.7599 4.06836 25.3511C4.06836 24.9424 4.40927 24.6079 4.82594 24.6079H21.5153C21.932 24.6079 22.2729 24.9424 22.2729 25.3511C22.2653 25.7599 21.932 26.0943 21.5153 26.0943Z" fill="var(--main-color)"/>
<path d="M24.3258 29.5133H4.94703C4.53036 29.5133 4.18945 29.1788 4.18945 28.7701C4.18945 28.3613 4.53036 28.0269 4.94703 28.0269H24.3334C24.7501 28.0269 25.091 28.3613 25.091 28.7701C25.0834 29.1863 24.7425 29.5133 24.3258 29.5133Z" fill="var(--main-color)"/>
<path d="M25.1212 34.411H17.2878C16.8712 34.411 16.5303 34.0765 16.5303 33.6678C16.5303 33.259 16.8712 32.9246 17.2878 32.9246H25.1212C25.5378 32.9246 25.8788 33.259 25.8788 33.6678C25.8788 34.084 25.5378 34.411 25.1212 34.411Z" fill="var(--main-color)"/>
<path d="M9.41673 10.3085H4.69703C4.28036 10.3085 3.93945 9.97401 3.93945 9.56524C3.93945 9.15647 4.28036 8.82202 4.69703 8.82202H9.41673C9.83339 8.82202 10.1743 9.15647 10.1743 9.56524C10.1743 9.97401 9.83339 10.3085 9.41673 10.3085Z" fill="var(--main-color)"/>
<path d="M29.8561 40H8.19697C8 40 7.80303 39.9257 7.66667 39.7845L0.227273 32.4861C0.0833333 32.3449 0 32.1591 0 31.9584V3.51543C0 3.10666 0.340909 2.77222 0.757576 2.77222H29.8561C30.2727 2.77222 30.6136 3.10666 30.6136 3.51543V10.8287C30.6136 11.2375 30.2727 11.5719 29.8561 11.5719C29.4394 11.5719 29.0985 11.2375 29.0985 10.8287V4.25122H1.50758V31.6537L8.50758 38.521H29.0985V29.2011C29.0985 28.7923 29.4394 28.4578 29.8561 28.4578C30.2727 28.4578 30.6136 28.7923 30.6136 29.2011V39.2568C30.6061 39.673 30.2727 40 29.8561 40Z" fill="var(--main-color)"/>
<path d="M32.6058 15.0502C32.1892 15.0502 31.8483 14.7157 31.8483 14.3069V1.479H4.25734V3.51542C4.25734 3.92419 3.91643 4.25864 3.49976 4.25864C3.0831 4.25864 2.74219 3.92419 2.74219 3.51542V0.743218C2.74219 0.334448 3.0831 0 3.49976 0H32.5982C33.0149 0 33.3558 0.334448 33.3558 0.743218V14.3144C33.3634 14.7232 33.0225 15.0502 32.6058 15.0502Z" fill="var(--main-color)"/>
<path d="M32.6062 37.2279H29.8562C29.4395 37.2279 29.0986 36.8934 29.0986 36.4847C29.0986 36.0759 29.4395 35.7415 29.8562 35.7415H31.8562V26.5181C31.8562 26.1094 32.1971 25.7749 32.6138 25.7749C33.0305 25.7749 33.3714 26.1094 33.3714 26.5181V36.4847C33.3638 36.8934 33.0229 37.2279 32.6062 37.2279Z" fill="var(--main-color)"/>
<path d="M8.19719 40.0001C8.00022 40.0001 7.81083 39.9257 7.66689 39.7845L0.227498 32.4861C0.0153766 32.278 -0.0528053 31.9584 0.0608311 31.676C0.174467 31.401 0.45477 31.2227 0.757801 31.2227H8.19719C8.61386 31.2227 8.95477 31.5571 8.95477 31.9659V39.2643C8.95477 39.5616 8.77295 39.8366 8.49265 39.948C8.39416 39.9852 8.29568 40.0001 8.19719 40.0001ZM2.57598 32.7017L7.43962 37.4731V32.7017H2.57598Z" fill="var(--main-color)"/>
<path d="M28.1364 26.3619C24.8561 26.3619 22.1895 23.7458 22.1895 20.5276C22.1895 17.3095 24.8561 14.6934 28.1364 14.6934C31.4167 14.6934 34.0834 17.3095 34.0834 20.5276C34.0834 23.7458 31.4167 26.3619 28.1364 26.3619ZM28.1364 16.1724C25.6895 16.1724 23.697 18.127 23.697 20.5276C23.697 22.9282 25.6895 24.8829 28.1364 24.8829C30.5834 24.8829 32.5758 22.9282 32.5758 20.5276C32.5758 18.127 30.5834 16.1724 28.1364 16.1724Z" fill="var(--main-color)"/>
<path d="M28.1365 17.3765C27.7198 17.3765 27.3789 17.042 27.3789 16.6332V13.5489C27.3789 13.1401 27.7198 12.8057 28.1365 12.8057C28.5531 12.8057 28.8941 13.1401 28.8941 13.5489V16.6332C28.8941 17.042 28.5531 17.3765 28.1365 17.3765Z" fill="var(--main-color)"/>
<path d="M35.2501 21.2709H32.1062C31.6895 21.2709 31.3486 20.9364 31.3486 20.5276C31.3486 20.1189 31.6895 19.7844 32.1062 19.7844H35.2501C35.6668 19.7844 36.0077 20.1189 36.0077 20.5276C36.0077 20.9364 35.6668 21.2709 35.2501 21.2709Z" fill="var(--main-color)"/>
<path d="M28.2957 28.2422C27.879 28.2422 27.5381 27.9077 27.5381 27.499V24.4146C27.5381 24.0058 27.879 23.6714 28.2957 23.6714C28.7123 23.6714 29.0532 24.0058 29.0532 24.4146V27.499C29.0532 27.9077 28.7123 28.2422 28.2957 28.2422Z" fill="var(--main-color)"/>
<path d="M24.3258 21.2709H21.1819C20.7652 21.2709 20.4243 20.9364 20.4243 20.5276C20.4243 20.1189 20.7652 19.7844 21.1819 19.7844H24.3258C24.7425 19.7844 25.0834 20.1189 25.0834 20.5276C25.0834 20.9364 24.7425 21.2709 24.3258 21.2709Z" fill="var(--main-color)"/>
</svg>
