<svg width="38" height="38" viewBox="0 0 38 38" fill="none" xmlns="http://www.w3.org/2000/svg">
<g clip-path="url(#clip0_58_534)">
<path d="M18.9962 38C8.52075 38 0 29.4792 0 19.0038C0 8.52075 8.52075 0 18.9962 0C29.4717 0 37.9925 8.52075 37.9925 19.0038C38 29.4792 29.4792 38 18.9962 38ZM18.9962 1.50189C9.35094 1.50189 1.50189 9.35094 1.50189 18.9962C1.50189 28.6415 9.35094 36.4906 18.9962 36.4906C28.6415 36.4906 36.4906 28.6415 36.4906 18.9962C36.4981 9.35094 28.6491 1.50189 18.9962 1.50189Z" fill="var(--main-color)"/>
<path d="M18.9961 38C17.5848 38 16.1584 37.8415 14.7621 37.5246C14.6112 37.4868 14.4678 37.4113 14.3697 37.2906C11.2225 33.7359 9.26025 26.7246 9.26025 19.0038C9.26025 17.8717 9.30554 16.7396 9.38856 15.6302C9.41874 15.2151 9.78101 14.9057 10.1961 14.9359C10.6112 14.9661 10.9206 15.3283 10.8904 15.7434C10.8074 16.8151 10.7697 17.9095 10.7697 19.0038C10.7697 26.1283 12.5584 32.8 15.3433 36.1132C17.7659 36.6264 20.2414 36.6264 22.664 36.1132C23.4414 35.1849 24.1508 33.9925 24.7772 32.5585C24.9433 32.1812 25.3886 32 25.7659 32.1661C26.1433 32.3321 26.3169 32.7774 26.1584 33.1547C25.4263 34.8302 24.581 36.2189 23.6376 37.2906C23.532 37.4113 23.3961 37.4868 23.2452 37.5246C21.8338 37.8415 20.415 38 18.9961 38Z" fill="var(--main-color)"/>
<path d="M27.9624 21.1925C27.5247 21.1774 27.2001 20.8302 27.2077 20.4151C27.2228 19.9472 27.2303 19.4717 27.2303 18.9962C27.2303 11.8717 25.4416 5.2 22.6567 1.88679C20.2341 1.37358 17.7586 1.37358 15.336 1.88679C14.7549 2.58113 14.2039 3.43396 13.6983 4.42264C13.5096 4.79245 13.0567 4.9434 12.6869 4.75472C12.3171 4.56604 12.1662 4.11321 12.3549 3.7434C12.9586 2.55094 13.6379 1.52453 14.3624 0.709434C14.4681 0.588679 14.6039 0.513208 14.7549 0.475472C17.5473 -0.158491 20.4303 -0.158491 23.2228 0.475472C23.3737 0.513208 23.5171 0.588679 23.6152 0.709434C26.7624 4.26415 28.7247 11.2755 28.7247 18.9962C28.7247 19.4868 28.7171 19.9774 28.702 20.4604C28.702 20.8755 28.3624 21.1925 27.9624 21.1925Z" fill="var(--main-color)"/>
<path d="M18.9962 28.7397C11.2755 28.7397 4.26415 26.785 0.709434 23.6303C0.588679 23.5246 0.513207 23.3888 0.475472 23.2379C0.158491 21.8341 0 20.4152 0 18.9963C0 17.585 0.158491 16.1586 0.475472 14.7624C0.513207 14.6114 0.588679 14.468 0.709434 14.3699C1.94717 13.2756 3.60755 12.3171 5.64528 11.5171C6.03019 11.3662 6.46792 11.5548 6.61887 11.9397C6.76981 12.3246 6.58113 12.7624 6.19623 12.9133C4.42264 13.6077 2.97358 14.4228 1.88679 15.336C1.63019 16.5435 1.49434 17.7737 1.49434 18.9963C1.49434 20.219 1.62264 21.4492 1.88679 22.6567C5.2 25.4416 11.8717 27.2303 18.9962 27.2303C19.5774 27.2303 20.1736 27.2152 20.7623 27.1926C21.1698 27.1699 21.5245 27.502 21.5396 27.9171C21.5547 28.3322 21.2302 28.6794 20.8151 28.6945C20.2189 28.7246 19.6 28.7397 18.9962 28.7397Z" fill="var(--main-color)"/>
<path d="M33.4189 25.9622C33.1397 25.9622 32.868 25.8037 32.7397 25.532C32.5661 25.1546 32.7246 24.7093 33.102 24.5357C34.302 23.9697 35.3133 23.3433 36.1133 22.6641C36.3699 21.4565 36.5057 20.2263 36.5057 19.0037C36.5057 17.781 36.3774 16.5508 36.1133 15.3433C32.8001 12.5584 26.1284 10.7697 19.0039 10.7697C18.4378 10.7697 17.8793 10.7773 17.3208 10.7999C16.9057 10.8225 16.5586 10.4905 16.5435 10.0754C16.5284 9.66028 16.8529 9.31311 17.268 9.29801C17.834 9.27537 18.4227 9.26782 19.0114 9.26782C26.7322 9.26782 33.7435 11.2225 37.2982 14.3773C37.4189 14.4829 37.4944 14.6188 37.5322 14.7697C37.8491 16.1659 38.0076 17.5924 38.0076 19.0037C38.0076 20.415 37.8491 21.8414 37.5322 23.2376C37.4944 23.3886 37.4189 23.532 37.2982 23.6301C36.3623 24.4603 35.1623 25.2225 33.751 25.8867C33.6303 25.9395 33.5246 25.9622 33.4189 25.9622Z" fill="var(--main-color)"/>
<path d="M18.9964 38C18.5813 38 18.2417 37.6604 18.2417 37.2453V0.754717C18.2417 0.339623 18.5813 0 18.9964 0C19.4115 0 19.7511 0.339623 19.7511 0.754717V37.2528C19.7511 37.6604 19.4115 38 18.9964 38Z" fill="var(--main-color)"/>
<path d="M37.2453 19.7509H0.754717C0.339623 19.7509 0 19.4113 0 18.9962C0 18.5811 0.339623 18.2415 0.754717 18.2415H37.2528C37.6679 18.2415 38.0075 18.5811 38.0075 18.9962C38 19.4113 37.6604 19.7509 37.2453 19.7509Z" fill="var(--main-color)"/>
<path d="M27.3885 30.6263C25.0941 30.6263 23.23 28.7622 23.23 26.4678C23.23 24.1735 25.0941 22.3093 27.3885 22.3093C29.6828 22.3093 31.547 24.1735 31.547 26.4678C31.547 28.7622 29.6828 30.6263 27.3885 30.6263ZM27.3885 23.8112C25.9243 23.8112 24.7319 25.0037 24.7319 26.4678C24.7319 27.932 25.9243 29.1244 27.3885 29.1244C28.8526 29.1244 30.0451 27.932 30.0451 26.4678C30.0451 25.0037 28.8526 23.8112 27.3885 23.8112Z" fill="var(--main-color)"/>
<path d="M27.3888 28.0152C27.1548 28.0152 26.9435 27.9095 26.8076 27.7359L25.8341 26.5359C25.5699 26.2114 25.6227 25.7435 25.9473 25.4793C26.2718 25.2152 26.7397 25.268 27.0039 25.5925L27.4114 26.0906L30.4152 22.5737C30.6869 22.2567 31.1624 22.2189 31.4718 22.4906C31.7888 22.7623 31.8265 23.2378 31.5548 23.5473L27.9624 27.7435C27.819 27.9171 27.6076 28.0152 27.3888 28.0152Z" fill="var(--main-color)"/>
<path d="M11.1624 14.1737C8.86806 14.1737 7.00391 12.3095 7.00391 10.0152C7.00391 7.72084 8.86806 5.85669 11.1624 5.85669C13.4567 5.85669 15.3209 7.72084 15.3209 10.0152C15.3209 12.3095 13.4492 14.1737 11.1624 14.1737ZM11.1624 7.35858C9.69825 7.35858 8.50579 8.55103 8.50579 10.0152C8.50579 11.4793 9.69825 12.6718 11.1624 12.6718C12.6265 12.6718 13.819 11.4793 13.819 10.0152C13.819 8.55103 12.6265 7.35858 11.1624 7.35858Z" fill="var(--main-color)"/>
<path d="M11.1622 11.5547C10.9282 11.5547 10.7169 11.4491 10.5811 11.2755L9.60749 10.0755C9.34334 9.75095 9.39617 9.28303 9.7207 9.01888C10.0452 8.75472 10.5132 8.80756 10.7773 9.13208L11.1848 9.6302L14.1886 6.11322C14.4603 5.79623 14.9358 5.7585 15.2452 6.0302C15.5622 6.30189 15.5999 6.77737 15.3282 7.0868L11.7358 11.283C11.5848 11.4642 11.3811 11.5547 11.1622 11.5547Z" fill="var(--main-color)"/>
<path d="M33.7964 37.9999H4.20394C3.78884 37.9999 3.44922 37.6603 3.44922 37.2452C3.44922 36.8301 3.78884 36.4905 4.20394 36.4905H33.7888C34.2039 36.4905 34.5436 36.8301 34.5436 37.2452C34.5436 37.6603 34.2115 37.9999 33.7964 37.9999Z" fill="var(--main-color)"/>
</g>
<defs>
<clipPath id="clip0_58_534">
<rect width="38" height="38" fill="var(--main-color)"/>
</clipPath>
</defs>
</svg>
