<svg width="40" height="41" viewBox="0 0 40 41" fill="none" xmlns="http://www.w3.org/2000/svg">
<g clip-path="url(#clip0_58_306)">
<path d="M9.05494 36.1866C8.5104 36.1866 7.98142 36.0141 7.5458 35.677C7.00126 35.2615 6.6512 34.6579 6.55785 33.9837C6.46451 33.3017 6.64342 32.6275 7.06349 32.0866C7.07127 32.0709 7.08683 32.0552 7.09461 32.0474L11.1242 27.5084C11.1475 27.4849 11.1631 27.4535 11.1631 27.4143L11.8321 23.0713C11.8943 22.648 12.291 22.3579 12.7189 22.4206C13.139 22.4833 13.4346 22.8832 13.3645 23.3143L12.6955 27.6573C12.6411 27.9866 12.5011 28.3002 12.2755 28.551L8.26147 33.0665C8.10589 33.2703 8.04366 33.529 8.08255 33.7799C8.12145 34.0464 8.25369 34.2738 8.46373 34.4384C8.67376 34.5952 8.93047 34.6658 9.18718 34.6266C9.44389 34.5874 9.67726 34.4541 9.83284 34.2424L14.1191 28.9587C14.477 28.5197 14.7025 27.9944 14.7726 27.43L15.1693 24.4118C15.2237 23.9885 15.6127 23.6828 16.0405 23.7376C16.4684 23.7925 16.764 24.1845 16.7095 24.6157L16.3128 27.6338C16.2039 28.4805 15.8616 29.2801 15.3171 29.9464L11.0542 35.1988C10.6652 35.7162 10.074 36.069 9.41277 36.1631C9.29609 36.1788 9.17162 36.1866 9.05494 36.1866Z" fill="white"/>
<path d="M21.9448 34.117C20.7391 34.117 19.6889 33.2625 19.44 32.0552L18.2964 26.3638C18.2887 26.309 18.242 26.2541 18.1875 26.2384L12.3143 23.9101C10.5174 23.1967 9.59944 21.1977 10.2218 19.3554L13.1778 10.6302C13.489 9.70515 14.1502 8.9604 15.0292 8.54492C15.9083 8.12943 16.8962 8.09023 17.7986 8.43516C18.3198 8.63115 18.7321 8.90553 19.0977 9.28182C19.1444 9.32102 19.1833 9.36805 19.2222 9.42293L21.7115 12.935H25.8422C27.1568 12.935 28.2225 14.009 28.2225 15.3338C28.2225 16.6587 27.1568 17.7327 25.8422 17.7327H19.6578C19.44 17.7327 19.2299 17.6386 19.0821 17.474L18.5376 16.8625L17.4719 19.8885L21.2214 21.425C22.046 21.7621 22.645 22.4833 22.8316 23.3614L24.4341 31.0126C24.5819 31.7338 24.4186 32.4942 23.983 33.0822C23.5395 33.678 22.8705 34.0464 22.1393 34.1092C22.0771 34.117 22.0071 34.117 21.9448 34.117ZM16.5539 9.76002C16.2583 9.76002 15.9705 9.82274 15.6982 9.95601C15.2004 10.1912 14.827 10.6067 14.6558 11.1319L11.6998 19.8572C11.342 20.9076 11.8709 22.0522 12.89 22.4598L18.7632 24.7881C19.3077 25.0076 19.7045 25.478 19.8211 26.0581L20.9647 31.7495C21.0658 32.2512 21.5248 32.5883 22.0226 32.557C22.3182 32.5334 22.5749 32.3923 22.7461 32.1572C22.925 31.922 22.9872 31.6319 22.925 31.3419L21.3225 23.6906C21.2447 23.3222 20.9958 23.0164 20.6457 22.8753L16.2039 21.0566C15.8227 20.8998 15.6282 20.4686 15.7682 20.0688L17.363 15.5377L15.916 13.9071C15.6282 13.5856 15.6593 13.0918 15.9783 12.8017C16.2972 12.5116 16.7873 12.543 17.0751 12.8644L18.8176 14.8321C18.8332 14.8478 20.0078 16.1726 20.0078 16.1726H25.8499C26.3089 16.1726 26.6823 15.7964 26.6823 15.3338C26.6823 14.8713 26.3089 14.495 25.8499 14.495H21.3147C21.0658 14.495 20.8324 14.3696 20.6846 14.1658L18.0164 10.4029C17.8064 10.1677 17.5808 10.0187 17.2618 9.90113C17.0362 9.80706 16.7951 9.76002 16.5539 9.76002Z" fill="white"/>
<path d="M18.3276 7.13384C16.375 7.13384 14.7881 5.53461 14.7881 3.56692C14.7881 1.59924 16.375 0 18.3276 0C20.2801 0 21.867 1.59924 21.867 3.56692C21.867 5.53461 20.2801 7.13384 18.3276 7.13384ZM18.3276 1.56004C17.2307 1.56004 16.3361 2.46157 16.3361 3.56692C16.3361 4.67228 17.2307 5.57381 18.3276 5.57381C19.4244 5.57381 20.319 4.67228 20.319 3.56692C20.319 2.46157 19.4322 1.56004 18.3276 1.56004Z" fill="white"/>
<path d="M39.2223 41.0001H4.80769C4.37984 41.0001 4.02979 40.6473 4.02979 40.2162V35.4028C4.02979 34.9716 4.37984 34.6188 4.80769 34.6188H15.7295V33.3253C15.7295 32.8942 16.0796 32.5414 16.5074 32.5414H25.8423V30.8951C25.8423 30.464 26.1924 30.1112 26.6202 30.1112H33.6681V24.7412C33.6681 24.31 34.0181 23.9573 34.446 23.9573H39.2379C39.6657 23.9573 40.0158 24.31 40.0158 24.7412V40.2083C40.0002 40.6552 39.6502 41.0001 39.2223 41.0001ZM5.57782 39.4401H38.4522V25.533H35.2083V30.903C35.2083 31.3341 34.8583 31.6869 34.4304 31.6869H27.3826V33.3332C27.3826 33.7644 27.0325 34.1171 26.6047 34.1171H17.2698V35.4106C17.2698 35.8418 16.9197 36.1946 16.4919 36.1946H5.57782V39.4401Z" fill="white"/>
<path d="M11.98 17.3878C11.7622 17.3878 11.5444 17.2937 11.3888 17.1134L9.42067 14.7851C9.01616 14.3069 8.87614 13.6641 9.03172 13.0604C9.1873 12.4568 9.63071 11.9708 10.2141 11.7591L13.5125 10.5597C13.917 10.4107 14.3604 10.6224 14.5004 11.03C14.6482 11.4377 14.4382 11.8845 14.0337 12.0256L10.7353 13.2251C10.5875 13.2799 10.5409 13.3975 10.5175 13.4602C10.502 13.523 10.4864 13.6484 10.5875 13.7738L12.5556 16.1021C12.8357 16.4314 12.789 16.9253 12.4701 17.1996C12.33 17.3329 12.1511 17.3878 11.98 17.3878Z" fill="white"/>
<path d="M7.41328 25.282H2.66804C2.2402 25.282 1.89014 24.9292 1.89014 24.4981C1.89014 24.0669 2.2402 23.7141 2.66804 23.7141H7.4055C7.83335 23.7141 8.18341 24.0669 8.18341 24.4981C8.18341 24.9292 7.84113 25.282 7.41328 25.282Z" fill="white"/>
<path d="M7.41366 21.3389H1.96052C1.53268 21.3389 1.18262 20.9861 1.18262 20.5549C1.18262 20.1238 1.53268 19.771 1.96052 19.771H7.41366C7.84151 19.771 8.19156 20.1238 8.19156 20.5549C8.19156 20.9861 7.84151 21.3389 7.41366 21.3389Z" fill="white"/>
<path d="M7.41346 17.3877H0.777907C0.350058 17.3877 0 17.0349 0 16.6038C0 16.1726 0.350058 15.8198 0.777907 15.8198H7.41346C7.84131 15.8198 8.19137 16.1726 8.19137 16.6038C8.19137 17.0349 7.84131 17.3877 7.41346 17.3877Z" fill="white"/>
<path d="M36.6705 25.533C36.2426 25.533 35.8926 25.1802 35.8926 24.7491V6.87525C35.8926 6.44408 36.2426 6.09131 36.6705 6.09131C37.0983 6.09131 37.4484 6.44408 37.4484 6.87525V24.7569C37.4484 25.1802 37.0983 25.533 36.6705 25.533Z" fill="white"/>
<path d="M36.6708 15.3731C36.5307 15.3731 36.3907 15.3339 36.2663 15.2555L30.4164 11.6102C30.1908 11.4691 30.0508 11.2182 30.0508 10.9438C30.0508 10.6695 30.1908 10.4186 30.4164 10.2775L36.2663 6.63217C36.5074 6.48322 36.803 6.47538 37.0519 6.61649C37.3009 6.7576 37.4487 7.0163 37.4487 7.29852V14.5813C37.4487 14.8635 37.2931 15.1222 37.0519 15.2633C36.9353 15.3417 36.803 15.3731 36.6708 15.3731ZM32.2912 10.9517L35.8929 13.1937V8.70961L32.2912 10.9517Z" fill="white"/>
</g>
<defs>
<clipPath id="clip0_58_306">
<rect width="40" height="41" fill="white"/>
</clipPath>
</defs>
</svg>
