<svg width="24" height="20" viewBox="0 0 24 20" fill="none" xmlns="http://www.w3.org/2000/svg">
<path d="M11.145 9.64838C11.613 10.1235 12.381 10.1235 12.849 9.64525L21.909 0.362567C21.447 0.137532 20.937 0 20.394 0H3.59399C3.05099 0 2.54098 0.137532 2.07898 0.362567L11.145 9.64838Z" fill="#2CBB77"/>
<path d="M14.532 11.4299C13.833 12.1394 12.915 12.4957 11.997 12.4957C11.082 12.4957 10.164 12.1425 9.46798 11.433L0.375 2.11596C0.141 2.61291 0 3.16299 0 3.74746V16.2494C0 18.3122 1.62 20 3.6 20H20.4C22.38 20 24 18.3122 24 16.2494V3.74746C24 3.15987 23.856 2.60979 23.625 2.11596L14.532 11.4299Z" fill="#2CBB77"/>
</svg>
