<svg width="180" height="47" viewBox="0 0 180 47" fill="none" xmlns="http://www.w3.org/2000/svg">
<path d="M11.4961 41.0388H2.23478V26.1333H3.83551V39.5524H11.4961V41.0388ZM13.5126 41.0388V30.8212H14.999V41.0388H13.5126ZM13.5646 28.0979C13.3844 27.9108 13.2944 27.6821 13.2944 27.4118C13.2944 27.1416 13.3844 26.9164 13.5646 26.7362C13.7517 26.5491 13.9804 26.4556 14.2506 26.4556C14.5209 26.4556 14.7461 26.5491 14.9263 26.7362C15.1134 26.9164 15.2069 27.1416 15.2069 27.4118C15.2069 27.6821 15.1134 27.9108 14.9263 28.0979C14.7461 28.278 14.5209 28.3681 14.2506 28.3681C13.9804 28.3681 13.7517 28.278 13.5646 28.0979ZM25.8611 41.0388V39.6564C25.8334 39.6979 25.7918 39.7568 25.7364 39.8331C25.681 39.9024 25.5493 40.0306 25.3414 40.2177C25.1404 40.3978 24.9222 40.5607 24.6866 40.7062C24.451 40.8448 24.1391 40.9695 23.7511 41.0804C23.3699 41.1913 22.975 41.2467 22.5661 41.2467C21.3742 41.2467 20.3833 40.8344 19.5933 40.0098C18.8103 39.1782 18.4188 38.1007 18.4188 36.7771V30.8212H19.9052V36.7771C19.9052 37.6711 20.1823 38.4091 20.7367 38.9911C21.2911 39.5732 21.9702 39.8643 22.774 39.8643C23.6402 39.8643 24.3713 39.5455 24.9672 38.908C25.5631 38.2705 25.8611 37.4562 25.8611 36.4653V30.8212H27.3579V41.0388H25.8611ZM37.5132 38.6897C38.2616 37.8997 38.6358 36.9816 38.6358 35.9352C38.6358 34.8819 38.2616 33.9637 37.5132 33.1807C36.7717 32.3907 35.9402 31.9957 35.0185 31.9957C34.1385 31.9957 33.3485 32.3803 32.6486 33.1495C31.9557 33.9118 31.6092 34.8403 31.6092 35.9352C31.6092 37.0231 31.9557 37.9517 32.6486 38.7209C33.3485 39.4831 34.1385 39.8643 35.0185 39.8643C35.9402 39.8643 36.7717 39.4727 37.5132 38.6897ZM38.6358 32.4219V26.1333H40.1222V41.0388H38.6358V39.4381C38.608 39.4797 38.5595 39.5455 38.4902 39.6356C38.421 39.7187 38.272 39.8643 38.0433 40.0721C37.8146 40.28 37.5686 40.4671 37.3053 40.6334C37.042 40.7928 36.7024 40.9349 36.2866 41.0596C35.8778 41.1843 35.4551 41.2467 35.0185 41.2467C33.7158 41.2467 32.5724 40.727 31.5884 39.6876C30.6113 38.6412 30.1228 37.3904 30.1228 35.9352C30.1228 34.4731 30.6113 33.2188 31.5884 32.1724C32.5724 31.1261 33.7158 30.6029 35.0185 30.6029C35.4551 30.6029 35.8743 30.6687 36.2763 30.8004C36.6851 30.9251 37.0281 31.0741 37.3053 31.2473C37.5825 31.4137 37.8215 31.5869 38.0225 31.7671C38.2304 31.9472 38.3863 32.0997 38.4902 32.2244L38.6358 32.4219ZM57.252 41.0388V34.9685C57.252 34.0192 57.0164 33.2881 56.5452 32.7753C56.0809 32.2556 55.4677 31.9957 54.7054 31.9957C53.9224 31.9957 53.2641 32.3041 52.7305 32.9208C52.1969 33.5376 51.9301 34.3622 51.9301 35.3947V41.0388H50.4437V34.9685C50.4437 34.033 50.2081 33.3054 49.7369 32.7857C49.2726 32.2591 48.6559 31.9957 47.8867 31.9957C47.1037 31.9957 46.4454 32.3041 45.9118 32.9208C45.3852 33.5376 45.1218 34.3622 45.1218 35.3947V41.0388H43.6354V30.8212H45.1218V32.0997C45.1496 32.0581 45.1842 32.0061 45.2258 31.9438C45.2674 31.8745 45.3713 31.7567 45.5376 31.5904C45.7108 31.4171 45.9014 31.2647 46.1093 31.133C46.3172 30.9944 46.5874 30.8732 46.9201 30.7692C47.2527 30.6583 47.6095 30.6029 47.9907 30.6029C48.448 30.6029 48.8742 30.6687 49.2692 30.8004C49.6711 30.9251 49.9864 31.0741 50.2151 31.2473C50.4507 31.4137 50.6516 31.5869 50.8179 31.7671C50.9912 31.9472 51.1159 32.0997 51.1921 32.2244L51.2961 32.4219C51.3238 32.3803 51.3619 32.318 51.4104 32.2348C51.4589 32.1447 51.5871 31.9957 51.795 31.7879C52.0029 31.58 52.2246 31.3963 52.4602 31.237C52.7028 31.0706 53.0319 30.9251 53.4477 30.8004C53.8704 30.6687 54.3243 30.6029 54.8094 30.6029C55.9735 30.6029 56.9194 30.9875 57.647 31.7567C58.3815 32.5259 58.7488 33.5965 58.7488 34.9685V41.0388H57.252ZM62.1582 41.0388V30.8212H63.6446V41.0388H62.1582ZM62.2101 28.0979C62.03 27.9108 61.9399 27.6821 61.9399 27.4118C61.9399 27.1416 62.03 26.9164 62.2101 26.7362C62.3972 26.5491 62.6259 26.4556 62.8962 26.4556C63.1664 26.4556 63.3916 26.5491 63.5718 26.7362C63.7589 26.9164 63.8524 27.1416 63.8524 27.4118C63.8524 27.6821 63.7589 27.9108 63.5718 28.0979C63.3916 28.278 63.1664 28.3681 62.8962 28.3681C62.6259 28.3681 62.3972 28.278 62.2101 28.0979ZM68.6546 26.1333V41.0388H67.1682V26.1333H68.6546ZM74.4131 35.1868L78.3525 34.5424C78.3525 33.787 78.1135 33.1738 77.6353 32.7026C77.1572 32.2313 76.5439 31.9957 75.7955 31.9957C75.255 31.9957 74.7457 32.1205 74.2676 32.3699C73.7964 32.6125 73.4533 32.8619 73.2385 33.1183L72.9163 33.4821L71.96 32.5259C72.0016 32.4704 72.057 32.4011 72.1263 32.318C72.2026 32.2279 72.3619 32.0754 72.6045 31.8606C72.8539 31.6389 73.1138 31.4414 73.384 31.2681C73.6543 31.0949 74.0077 30.9424 74.4443 30.8108C74.8878 30.6722 75.3382 30.6029 75.7955 30.6029C76.9597 30.6029 77.9229 30.9806 78.6852 31.7359C79.4543 32.4912 79.8389 33.4267 79.8389 34.5424V41.0388H78.3525V39.6564C78.3248 39.6979 78.2798 39.7568 78.2174 39.8331C78.162 39.9024 78.0303 40.0306 77.8224 40.2177C77.6215 40.3978 77.4032 40.5607 77.1676 40.7062C76.932 40.8448 76.6202 40.9695 76.2321 41.0804C75.851 41.1913 75.456 41.2467 75.0471 41.2467C74.0285 41.2467 73.1692 40.9453 72.4693 40.3424C71.7764 39.7395 71.4299 39.05 71.4299 38.2739C71.4299 37.4216 71.6863 36.7356 72.1991 36.2158C72.7119 35.6892 73.4499 35.3462 74.4131 35.1868ZM75.0471 39.8643C76.0104 39.8643 76.8003 39.549 77.4171 38.9184C78.0407 38.2878 78.3525 37.4701 78.3525 36.4653V35.8209L74.8393 36.4653C73.5642 36.7078 72.9232 37.3107 72.9163 38.2739C72.9163 38.7313 73.1034 39.1124 73.4776 39.4173C73.8587 39.7153 74.3819 39.8643 75.0471 39.8643ZM98.4656 26.1333H100.056V41.0388H98.6735L89.5265 29.0126V41.0388H87.9257V26.1333H89.3082L98.4656 38.17V26.1333ZM103.902 41.0388V30.8212H105.388V41.0388H103.902ZM103.954 28.0979C103.774 27.9108 103.684 27.6821 103.684 27.4118C103.684 27.1416 103.774 26.9164 103.954 26.7362C104.141 26.5491 104.37 26.4556 104.64 26.4556C104.91 26.4556 105.135 26.5491 105.315 26.7362C105.503 26.9164 105.596 27.1416 105.596 27.4118C105.596 27.6821 105.503 27.9108 105.315 28.0979C105.135 28.278 104.91 28.3681 104.64 28.3681C104.37 28.3681 104.141 28.278 103.954 28.0979ZM110.398 38.17V41.0388H108.912V26.1333H110.398V36.247L115.512 30.8212H117.321L113.381 34.9685L117.747 41.0388H116.042L112.425 36.0391L110.398 38.17ZM126.749 38.7313C127.483 37.969 127.85 37.037 127.85 35.9352C127.85 34.8265 127.483 33.8944 126.749 33.1391C126.021 32.3769 125.144 31.9957 124.119 31.9957C123.1 31.9957 122.224 32.3769 121.489 33.1391C120.761 33.8944 120.398 34.823 120.398 35.9248C120.398 37.0197 120.761 37.9517 121.489 38.7209C122.224 39.4831 123.1 39.8643 124.119 39.8643C125.144 39.8643 126.021 39.4866 126.749 38.7313ZM120.429 39.7083C119.417 38.6828 118.911 37.4251 118.911 35.9352C118.911 34.4384 119.417 33.1772 120.429 32.1517C121.447 31.1192 122.681 30.6029 124.129 30.6029C125.578 30.6029 126.808 31.1192 127.819 32.1517C128.831 33.1772 129.337 34.4384 129.337 35.9352C129.337 37.4251 128.831 38.6828 127.819 39.7083C126.808 40.7339 125.578 41.2467 124.129 41.2467C122.681 41.2467 121.447 40.7339 120.429 39.7083ZM133.598 26.1333V41.0388H132.112V26.1333H133.598ZM139.357 35.1868L143.296 34.5424C143.296 33.787 143.057 33.1738 142.579 32.7026C142.101 32.2313 141.488 31.9957 140.739 31.9957C140.199 31.9957 139.69 32.1205 139.211 32.3699C138.74 32.6125 138.397 32.8619 138.182 33.1183L137.86 33.4821L136.904 32.5259C136.945 32.4704 137.001 32.4011 137.07 32.318C137.146 32.2279 137.306 32.0754 137.548 31.8606C137.798 31.6389 138.058 31.4414 138.328 31.2681C138.598 31.0949 138.952 30.9424 139.388 30.8108C139.832 30.6722 140.282 30.6029 140.739 30.6029C141.904 30.6029 142.867 30.9806 143.629 31.7359C144.398 32.4912 144.783 33.4267 144.783 34.5424V41.0388H143.296V39.6564C143.269 39.6979 143.224 39.7568 143.161 39.8331C143.106 39.9024 142.974 40.0306 142.766 40.2177C142.565 40.3978 142.347 40.5607 142.111 40.7062C141.876 40.8448 141.564 40.9695 141.176 41.0804C140.795 41.1913 140.4 41.2467 139.991 41.2467C138.972 41.2467 138.113 40.9453 137.413 40.3424C136.72 39.7395 136.374 39.05 136.374 38.2739C136.374 37.4216 136.63 36.7356 137.143 36.2158C137.656 35.6892 138.394 35.3462 139.357 35.1868ZM139.991 39.8643C140.954 39.8643 141.744 39.549 142.361 38.9184C142.985 38.2878 143.296 37.4701 143.296 36.4653V35.8209L139.783 36.4653C138.508 36.7078 137.867 37.3107 137.86 38.2739C137.86 38.7313 138.047 39.1124 138.421 39.4173C138.803 39.7153 139.326 39.8643 139.991 39.8643ZM157.225 36.4861L148.92 36.4653C148.975 37.3869 149.353 38.1838 150.053 38.856C150.76 39.5282 151.588 39.8643 152.537 39.8643C153.174 39.8643 153.767 39.7222 154.314 39.4381C154.862 39.154 155.25 38.8699 155.479 38.5858L155.842 38.17L156.799 39.1263C156.757 39.1817 156.695 39.2614 156.612 39.3653C156.535 39.4623 156.362 39.6321 156.092 39.8747C155.828 40.1103 155.541 40.3216 155.229 40.5087C154.924 40.6889 154.526 40.8586 154.034 41.018C153.549 41.1705 153.05 41.2467 152.537 41.2467C151.144 41.2467 149.945 40.7305 148.941 39.6979C147.936 38.6585 147.433 37.4008 147.433 35.9248C147.433 34.4488 147.929 33.1946 148.92 32.1621C149.918 31.1226 151.089 30.6029 152.433 30.6029C153.826 30.6029 154.99 31.088 155.926 32.0581C156.861 33.0213 157.329 34.2409 157.329 35.7169L157.225 36.4861ZM154.72 32.9C154.089 32.2972 153.327 31.9957 152.433 31.9957C151.539 31.9957 150.76 32.311 150.094 32.9416C149.429 33.5722 149.038 34.3206 148.92 35.1868H155.842C155.731 34.2652 155.357 33.5029 154.72 32.9ZM164.241 41.0388H162.755L158.597 30.8212H160.198L163.503 39.0119L166.798 30.8212H168.399L164.241 41.0388ZM172.66 35.1868L176.6 34.5424C176.6 33.787 176.361 33.1738 175.883 32.7026C175.405 32.2313 174.791 31.9957 174.043 31.9957C173.502 31.9957 172.993 32.1205 172.515 32.3699C172.044 32.6125 171.701 32.8619 171.486 33.1183L171.164 33.4821L170.207 32.5259C170.249 32.4704 170.304 32.4011 170.374 32.318C170.45 32.2279 170.609 32.0754 170.852 31.8606C171.101 31.6389 171.361 31.4414 171.631 31.2681C171.902 31.0949 172.255 30.9424 172.692 30.8108C173.135 30.6722 173.585 30.6029 174.043 30.6029C175.207 30.6029 176.17 30.9806 176.932 31.7359C177.702 32.4912 178.086 33.4267 178.086 34.5424V41.0388H176.6V39.6564C176.572 39.6979 176.527 39.7568 176.465 39.8331C176.409 39.9024 176.278 40.0306 176.07 40.2177C175.869 40.3978 175.651 40.5607 175.415 40.7062C175.179 40.8448 174.867 40.9695 174.479 41.0804C174.098 41.1913 173.703 41.2467 173.294 41.2467C172.276 41.2467 171.417 40.9453 170.717 40.3424C170.024 39.7395 169.677 39.05 169.677 38.2739C169.677 37.4216 169.934 36.7356 170.446 36.2158C170.959 35.6892 171.697 35.3462 172.66 35.1868ZM173.294 39.8643C174.258 39.8643 175.048 39.549 175.664 38.9184C176.288 38.2878 176.6 37.4701 176.6 36.4653V35.8209L173.087 36.4653C171.812 36.7078 171.171 37.3107 171.164 38.2739C171.164 38.7313 171.351 39.1124 171.725 39.4173C172.106 39.7153 172.629 39.8643 173.294 39.8643Z" fill="black"/>
<path d="M88.6077 11.6471C88.6377 11.5323 88.6877 11.4524 88.7676 11.4076C88.8424 11.3628 88.9125 11.3777 88.9775 11.4474C89.0322 11.5122 89.0523 11.6169 89.0224 11.7565C88.8876 12.5092 88.7278 13.2374 88.5529 13.9304C88.3781 14.6284 88.1583 15.3614 87.8988 16.1342C87.644 16.8971 87.3395 17.5153 86.995 17.9789C86.6456 18.4426 86.286 18.677 85.9115 18.677C85.1175 18.677 84.5233 18.1087 84.1487 16.9718C83.7691 15.84 83.5545 14.11 83.5096 11.7816C82.0315 12.6141 80.0742 13.0282 77.6375 13.0282C76.419 13.0282 74.8314 12.8787 72.874 12.5744C70.9218 12.2704 68.9345 11.9609 66.9122 11.6569C64.8898 11.3529 63.1822 11.1983 61.7891 11.1983C60.7557 11.1983 59.8566 11.268 59.0878 11.3977C58.3238 11.5323 57.7445 11.6919 57.3502 11.8814C56.9508 12.071 56.6113 12.2653 56.3266 12.4599C56.0419 12.6545 55.7674 12.8138 55.4929 12.9486C55.2231 13.0784 54.9285 13.143 54.6142 13.143C54.3444 13.143 54.1199 13.0733 53.94 12.9286C53.7549 12.7789 53.6699 12.5795 53.6699 12.3203C53.6699 11.9015 53.8397 11.5376 54.1843 11.2384C54.5288 10.9344 55.0082 10.7099 55.6174 10.5553C56.2314 10.4008 56.8706 10.2911 57.5448 10.2214C58.2238 10.1518 58.9678 10.1168 59.7917 10.1168C61.085 10.1168 62.6277 10.2316 64.4054 10.4558C66.193 10.6851 67.8157 10.9395 69.2889 11.2187C70.7619 11.4979 72.3447 11.7523 74.0524 11.9816C75.755 12.2061 77.1932 12.3206 78.3617 12.3206C80.5538 12.3206 82.2713 11.9068 83.4997 11.0842V10.7003C83.4997 9.37391 83.6595 8.05289 83.979 6.7214C84.2984 5.395 84.7029 4.24347 85.1924 3.27102C85.6816 2.29886 86.2309 1.51085 86.8402 0.907586C87.4443 0.304023 88.0236 0 88.573 0C89.0275 0 89.372 0.184447 89.6068 0.553341C89.8415 0.922234 89.9564 1.31624 89.9564 1.72997C89.9564 2.36821 89.7966 3.12603 89.472 4.00342C89.1475 4.87095 88.7481 5.71367 88.2637 6.51633C87.7844 7.32915 87.3051 8.06185 86.8306 8.7252C86.3612 9.38826 85.9319 9.92187 85.5522 10.3257C85.4774 11.0635 85.4373 11.8166 85.4373 12.5795C85.4373 13.8658 85.5022 15.0125 85.637 16.0149C85.7717 17.0172 85.9866 17.5156 86.286 17.5156C86.5956 17.5156 87.0051 16.8325 87.5093 15.4613C88.0087 14.0903 88.3832 12.8189 88.6077 11.6471ZM88.8326 1.56047C88.6227 1.56047 88.3733 1.76495 88.0787 2.1736C87.7841 2.57747 87.4844 3.11587 87.18 3.784C86.8803 4.45722 86.5857 5.28469 86.3112 6.27687C86.0265 7.26398 85.8169 8.27619 85.672 9.3183C86.7704 7.83735 87.5943 6.42156 88.1488 5.06018C88.6981 3.70897 88.9778 2.66207 88.9778 1.94402C88.9775 1.69021 88.9275 1.56047 88.8326 1.56047ZM125.289 8.98468C125.553 8.98468 125.778 9.05942 125.958 9.20411C126.142 9.3488 126.232 9.54819 126.232 9.81245C126.232 10.2262 126.062 10.5903 125.718 10.8943C125.368 11.1936 124.894 11.4178 124.28 11.5723C123.676 11.7269 123.031 11.8366 122.352 11.9062C121.678 11.981 120.934 12.016 120.116 12.016C118.767 12.016 115.911 11.8064 111.522 11.3977C107.138 10.9939 104.027 10.7843 102.185 10.7843C101.571 10.7843 101.001 10.8991 100.477 11.1185C99.9426 11.343 99.4932 11.6372 99.1187 11.9911C98.7442 12.3502 98.3948 12.7439 98.0751 13.1779C97.7454 13.6117 97.4559 14.0455 97.1862 14.4843C96.9165 14.913 96.662 15.3121 96.4222 15.666C96.1725 16.02 95.9129 16.3141 95.6381 16.5386C95.3636 16.7631 95.0788 16.8726 94.7843 16.8726C94.155 16.8726 93.6807 16.5784 93.3463 15.985C93.0167 15.4018 92.8521 14.5492 92.8521 13.4323C92.8521 13.0784 92.8619 12.6596 92.882 12.181C92.9068 11.6973 92.9269 11.2737 92.947 10.9045C92.967 10.5356 92.982 10.1816 92.9919 9.84235C93.0017 9.50335 92.997 9.23909 92.982 9.05464C92.9619 8.87019 92.9221 8.77543 92.867 8.77543C92.6224 8.77543 92.268 9.43848 91.7883 10.7697C91.3189 12.0961 90.9594 13.3974 90.7049 14.6688C90.695 14.7037 90.6848 14.7486 90.6699 14.7934C90.6699 14.8583 90.6699 14.948 90.6797 15.0726C90.6896 15.1973 90.6947 15.2921 90.7046 15.3468C90.7345 15.6759 90.6447 15.9351 90.4399 16.1195C90.2402 16.304 90.0055 16.3488 89.7409 16.2591C89.4711 16.1694 89.2715 15.9351 89.1316 15.556C88.9619 15.0873 88.837 14.11 88.7622 12.6294C88.6921 11.1535 88.7622 9.82232 88.9769 8.65047C89.0269 8.43105 89.2017 8.29144 89.4963 8.23165C89.796 8.1617 90.0804 8.23673 90.3552 8.43105C90.6199 8.63552 90.7396 8.95957 90.7046 9.40829C90.6495 10.251 90.6196 11.2531 90.6196 12.4097C90.9591 10.9589 91.3686 9.7721 91.8428 8.85973C92.3123 7.94228 92.7817 7.48848 93.2359 7.48848C93.4954 7.48848 93.7203 7.56322 93.9149 7.71777C94.1047 7.87232 94.2544 8.10669 94.3591 8.4158C94.4639 8.72491 94.5489 9.04418 94.6088 9.36823C94.6738 9.69736 94.7136 10.1111 94.7286 10.6148C94.7435 11.1185 94.7435 11.5472 94.7435 11.9062C94.7435 12.2704 94.7435 12.7289 94.7286 13.2823C94.7136 13.8356 94.7037 14.2496 94.7037 14.5238C94.7037 14.8179 94.7486 15.0873 94.8286 15.3216C94.9133 15.5659 95.0384 15.6855 95.198 15.6855C95.3627 15.6855 95.5375 15.5808 95.7273 15.3764C95.9171 15.1668 96.1168 14.8977 96.3216 14.5686C96.5314 14.2395 96.7611 13.8757 97.0108 13.4817C97.2655 13.0877 97.5751 12.6889 97.9346 12.285C98.299 11.891 98.6987 11.5272 99.1331 11.193C99.5774 10.859 100.112 10.5948 100.751 10.3852C101.385 10.1807 102.074 10.0761 102.813 10.0761C104.256 10.0761 106.733 10.2208 110.263 10.5048C113.793 10.784 116.405 10.9287 118.113 10.9287C119.141 10.9287 120.04 10.859 120.809 10.7293C121.573 10.5948 122.157 10.4351 122.552 10.2456C122.951 10.0561 123.29 9.86656 123.57 9.67225C123.86 9.47794 124.134 9.3183 124.404 9.1787C124.679 9.04956 124.974 8.98468 125.289 8.98468Z" fill="#FB3482"/>
</svg>
