<svg width="9" height="6" viewBox="0 0 9 6" fill="none" xmlns="http://www.w3.org/2000/svg">
<path d="M-5.24742e-08 1.20047C-3.6543e-08 0.836006 0.176747 0.477539 0.510962 0.242062C1.07816 -0.156899 1.88318 -0.051917 2.31219 0.477531L4.50066 3.18327L6.68751 0.477531C7.11492 -0.0519167 7.92154 -0.156898 8.48874 0.242063C9.05594 0.641023 9.16842 1.39394 8.73941 1.92339L6.03997 5.26056C5.71218 5.70752 5.1241 6 4.50066 6C3.87722 6 3.28751 5.70753 2.92759 5.21858L0.261909 1.92489C0.0851611 1.70591 -6.34229e-08 1.45095 -5.24742e-08 1.20047ZM3.98487 3.81921C3.97362 3.83121 3.96398 3.84471 3.95434 3.8567L3.98487 3.81921ZM5.01162 3.81322C5.00519 3.80572 4.99877 3.79672 4.99234 3.78772L5.01162 3.81322Z" fill="black"/>
</svg>
