<svg width="40" height="40" viewBox="0 0 40 40" fill="none" xmlns="http://www.w3.org/2000/svg">
<circle cx="20" cy="20" r="19.5" stroke="#2CBB77"/>
<path d="M16.1342 20.6274L12.618 19.3123L27.4774 13.5465L24.7816 26.4524L21.1819 23.8208C20.7921 23.5295 20.2069 23.466 19.8029 23.8495L17.8359 25.4637L17.5513 24.545C17.6832 24.6216 17.8284 24.6467 17.9606 24.6346C18.2228 24.6107 18.5568 24.4053 18.5778 24.0119L18.762 22.5334L18.7659 22.5026V22.4716C18.7659 22.3658 18.8297 22.2403 18.9887 22.0796L24.8735 16.5495C24.9947 16.461 25.083 16.3278 25.1078 16.1665C25.1347 15.991 25.0782 15.8396 25.0105 15.7377C24.8829 15.5458 24.5661 15.3441 24.214 15.5206L24.1949 15.5302L24.1766 15.5415L16.975 19.9629C16.6335 20.1179 16.4262 20.4255 16.3795 20.7635L16.364 20.7134L16.1342 20.6274Z" fill="#2CBB77" stroke="#2CBB77"/>
</svg>
